<?xml version="1.0" standalone="no"?>
 <!DOCTYPE svg PUBLIC "-//W3C//DTD SVG 1.1//EN" 
 "http://www.w3.org/Graphics/SVG/1.1/DTD/svg11.dtd"> 
<svg
  xmlns:svg="http://www.w3.org/2000/svg"
  xmlns="http://www.w3.org/2000/svg"
  xmlns:xlink="http://www.w3.org/1999/xlink"
  version="1.1"
  width="64.2874mm" height="65.0494mm" viewBox="0.0000 0.0000 64.2874 65.0494">
<title>SVG Image created as rgb-lamp-brd.svg date 2024/08/17 15:02:05 </title>
  <desc>Image generated by PCBNEW </desc>
<g style="fill:#000000; fill-opacity:1.0000;stroke:#000000; stroke-opacity:1.0000;
stroke-linecap:round; stroke-linejoin:round;"
 transform="translate(0 0) scale(1 1)">
<path style="fill:#4D7FC4; fill-opacity:1.0000; stroke:none;fill-rule:evenodd;"
d="M 45.4834,35.5730
45.4834,34.0730
44.4334,34.0730
44.4334,35.5730
Z" /> 
</g>
<g style="fill:none; 
stroke:#4D7FC4; stroke-width:1.0500; stroke-opacity:1; 
stroke-linecap:round; stroke-linejoin:round;">
<path d="M43.6884 34.5980
L43.6884 35.0480
" />
<path d="M42.4184 34.5980
L42.4184 35.0480
" />
</g>
<g style="fill:#4D7FC4; fill-opacity:1.0000; stroke:none;">
<circle cx="8.0884" cy="13.9660" r="1.0000" /> 
</g>
<g style="fill:#4D7FC4; fill-opacity:1.0000; stroke:none;">
<circle cx="3.0884" cy="13.9660" r="1.0000" /> 
<path style="fill:#4D7FC4; fill-opacity:1.0000; stroke:none;fill-rule:evenodd;"
d="M 20.9944,61.7100
21.0134,61.8057
21.0676,61.8868
21.1487,61.9410
21.2444,61.9600
22.4444,61.9600
22.5401,61.9410
22.6212,61.8868
22.6754,61.8057
22.6944,61.7100
22.6944,60.2600
22.6754,60.1643
22.6212,60.0832
22.5401,60.0290
22.4444,60.0100
21.2444,60.0100
21.1487,60.0290
21.0676,60.0832
21.0134,60.1643
20.9944,60.2600
Z" /> 
</g>
<g style="fill:none; 
stroke:#4D7FC4; stroke-width:1.7000; stroke-opacity:1; 
stroke-linecap:round; stroke-linejoin:round;">
<path d="M24.3444 61.1100
L24.3444 60.8600
" />
<path d="M26.8444 61.1100
L26.8444 60.8600
" />
<path d="M29.3444 61.1100
L29.3444 60.8600
" />
<path style="fill:#4D7FC4; fill-opacity:1.0000; stroke:none;fill-rule:evenodd;"
d="M 7.7384,35.3790
7.8341,35.3600
7.9152,35.3058
7.9694,35.2247
7.9884,35.1290
7.9884,33.9290
7.9694,33.8333
7.9152,33.7522
7.8341,33.6980
7.7384,33.6790
6.2384,33.6790
6.1427,33.6980
6.0616,33.7522
6.0074,33.8333
5.9884,33.9290
5.9884,35.1290
6.0074,35.2247
6.0616,35.3058
6.1427,35.3600
6.2384,35.3790
Z" /> 
</g>
<g style="fill:none; 
stroke:#4D7FC4; stroke-width:1.7000; stroke-opacity:1; 
stroke-linecap:round; stroke-linejoin:round;">
<path d="M7.1384 32.0290
L6.8384 32.0290
" />
</g>
<g style="fill:#4D7FC4; fill-opacity:1.0000; stroke:none;">
<circle cx="43.6884" cy="39.9030" r="0.8000" /> 
</g>
<g style="fill:#4D7FC4; fill-opacity:1.0000; stroke:none;">
<circle cx="43.6884" cy="50.0630" r="0.8000" /> 
<circle cx="35.0524" cy="4.0890" r="0.8500" /> 
<circle cx="35.0524" cy="6.6290" r="0.8500" /> 
<path style="fill:#4D7FC4; fill-opacity:1.0000; stroke:none;fill-rule:evenodd;"
d="M 35.9024,10.0190
35.9024,8.3190
34.2024,8.3190
34.2024,10.0190
Z" /> 
<circle cx="35.0524" cy="11.7090" r="0.8500" /> 
<circle cx="35.0524" cy="14.2490" r="0.8500" /> 
<circle cx="35.0524" cy="16.7890" r="0.8500" /> 
<circle cx="35.0524" cy="19.3290" r="0.8500" /> 
<path style="fill:#4D7FC4; fill-opacity:1.0000; stroke:none;fill-rule:evenodd;"
d="M 35.9024,22.7190
35.9024,21.0190
34.2024,21.0190
34.2024,22.7190
Z" /> 
<circle cx="35.0524" cy="24.4090" r="0.8500" /> 
<circle cx="35.0524" cy="26.9490" r="0.8500" /> 
<circle cx="35.0524" cy="29.4890" r="0.8500" /> 
<circle cx="35.0524" cy="32.0290" r="0.8500" /> 
<path style="fill:#4D7FC4; fill-opacity:1.0000; stroke:none;fill-rule:evenodd;"
d="M 35.9024,35.4190
35.9024,33.7190
34.2024,33.7190
34.2024,35.4190
Z" /> 
<circle cx="35.0524" cy="37.1090" r="0.8500" /> 
<circle cx="35.0524" cy="39.6490" r="0.8500" /> 
<circle cx="35.0524" cy="42.1890" r="0.8500" /> 
<circle cx="35.0524" cy="44.7290" r="0.8500" /> 
<path style="fill:#4D7FC4; fill-opacity:1.0000; stroke:none;fill-rule:evenodd;"
d="M 35.9024,48.1190
35.9024,46.4190
34.2024,46.4190
34.2024,48.1190
Z" /> 
<circle cx="35.0524" cy="49.8090" r="0.8500" /> 
<circle cx="35.0524" cy="52.3490" r="0.8500" /> 
<circle cx="17.2724" cy="52.3490" r="0.8500" /> 
<circle cx="17.2724" cy="49.8090" r="0.8500" /> 
<path style="fill:#4D7FC4; fill-opacity:1.0000; stroke:none;fill-rule:evenodd;"
d="M 18.1224,48.1190
18.1224,46.4190
16.4224,46.4190
16.4224,48.1190
Z" /> 
<circle cx="17.2724" cy="44.7290" r="0.8500" /> 
<circle cx="17.2724" cy="42.1890" r="0.8500" /> 
<circle cx="17.2724" cy="39.6490" r="0.8500" /> 
<circle cx="17.2724" cy="37.1090" r="0.8500" /> 
<path style="fill:#4D7FC4; fill-opacity:1.0000; stroke:none;fill-rule:evenodd;"
d="M 18.1224,35.4190
18.1224,33.7190
16.4224,33.7190
16.4224,35.4190
Z" /> 
<circle cx="17.2724" cy="32.0290" r="0.8500" /> 
<circle cx="17.2724" cy="29.4890" r="0.8500" /> 
<circle cx="17.2724" cy="26.9490" r="0.8500" /> 
<circle cx="17.2724" cy="24.4090" r="0.8500" /> 
<path style="fill:#4D7FC4; fill-opacity:1.0000; stroke:none;fill-rule:evenodd;"
d="M 18.1224,22.7190
18.1224,21.0190
16.4224,21.0190
16.4224,22.7190
Z" /> 
<circle cx="17.2724" cy="19.3290" r="0.8500" /> 
<circle cx="17.2724" cy="16.7890" r="0.8500" /> 
<circle cx="17.2724" cy="14.2490" r="0.8500" /> 
<circle cx="17.2724" cy="11.7090" r="0.8500" /> 
<path style="fill:#4D7FC4; fill-opacity:1.0000; stroke:none;fill-rule:evenodd;"
d="M 18.1224,10.0190
18.1224,8.3190
16.4224,8.3190
16.4224,10.0190
Z" /> 
<circle cx="17.2724" cy="6.6290" r="0.8500" /> 
<circle cx="17.2724" cy="4.0890" r="0.8500" /> 
<circle cx="28.7024" cy="52.1190" r="0.8500" /> 
<path style="fill:#4D7FC4; fill-opacity:1.0000; stroke:none;fill-rule:evenodd;"
d="M 27.0124,52.9690
27.0124,51.2690
25.3124,51.2690
25.3124,52.9690
Z" /> 
<circle cx="23.6224" cy="52.1190" r="0.8500" /> 
<circle cx="58.6744" cy="18.8210" r="0.8000" /> 
</g>
<g style="fill:#4D7FC4; fill-opacity:1.0000; stroke:none;">
<circle cx="58.6744" cy="28.9810" r="0.8000" /> 
<circle cx="51.5624" cy="4.0890" r="0.8000" /> 
</g>
<g style="fill:#4D7FC4; fill-opacity:1.0000; stroke:none;">
<circle cx="41.4024" cy="4.0890" r="0.8000" /> 
<circle cx="43.4344" cy="26.4410" r="0.8000" /> 
</g>
<g style="fill:#4D7FC4; fill-opacity:1.0000; stroke:none;">
<circle cx="43.4344" cy="16.2810" r="0.8000" /> 
<circle cx="50.2924" cy="23.1390" r="0.8000" /> 
</g>
<g style="fill:#4D7FC4; fill-opacity:1.0000; stroke:none;">
<circle cx="50.2924" cy="33.2990" r="0.8000" /> 
<path style="fill:#4D7FC4; fill-opacity:1.0000; stroke:none;fill-rule:evenodd;"
d="M 52.0874,18.9150
52.0874,17.4150
51.0374,17.4150
51.0374,18.9150
Z" /> 
</g>
<g style="fill:none; 
stroke:#4D7FC4; stroke-width:1.0500; stroke-opacity:1; 
stroke-linecap:round; stroke-linejoin:round;">
<path d="M50.2924 17.9400
L50.2924 18.3900
" />
<path d="M49.0224 17.9400
L49.0224 18.3900
" />
<path style="fill:#4D7FC4; fill-opacity:1.0000; stroke:none;fill-rule:evenodd;"
d="M 54.3934,40.6970
54.2977,40.7160
54.2166,40.7702
54.1624,40.8513
54.1434,40.9470
54.1434,42.1470
54.1624,42.2427
54.2166,42.3238
54.2977,42.3780
54.3934,42.3970
55.8434,42.3970
55.9391,42.3780
56.0202,42.3238
56.0744,42.2427
56.0934,42.1470
56.0934,40.9470
56.0744,40.8513
56.0202,40.7702
55.9391,40.7160
55.8434,40.6970
Z" /> 
</g>
<g style="fill:none; 
stroke:#4D7FC4; stroke-width:1.7000; stroke-opacity:1; 
stroke-linecap:round; stroke-linejoin:round;">
<path d="M54.9934 44.0470
L55.2434 44.0470
" />
<path d="M54.9934 46.5470
L55.2434 46.5470
" />
<path d="M54.9934 49.0470
L55.2434 49.0470
" />
<path style="fill:#4D7FC4; fill-opacity:1.0000; stroke:none;fill-rule:evenodd;"
d="M 60.7234,14.0890
60.7234,12.5890
59.6734,12.5890
59.6734,14.0890
Z" /> 
</g>
<g style="fill:none; 
stroke:#4D7FC4; stroke-width:1.0500; stroke-opacity:1; 
stroke-linecap:round; stroke-linejoin:round;">
<path d="M58.9284 13.1140
L58.9284 13.5640
" />
<path d="M57.6584 13.1140
L57.6584 13.5640
" />
</g>
<g style="fill:#4D7FC4; fill-opacity:1.0000; stroke:none;">
<circle cx="52.0704" cy="9.1690" r="0.8000" /> 
</g>
<g style="fill:#4D7FC4; fill-opacity:1.0000; stroke:none;">
<circle cx="41.9104" cy="9.1690" r="0.8000" /> 
<path style="fill:#4D7FC4; fill-opacity:1.0000; stroke:none;fill-rule:evenodd;"
d="M 9.0486,22.9230
9.0486,21.3230
7.4486,21.3230
7.4486,22.9230
Z" /> 
<circle cx="5.7486" cy="22.1230" r="0.8000" /> 
</g>
<g style="fill:none; 
stroke:#4D7FC4; stroke-width:1.0000; stroke-opacity:1; 
stroke-linecap:round; stroke-linejoin:round;">
<path d="M8.0884 21.6358
L8.0884 13.9660
" />
<path d="M8.0884 13.9660
L15.4254 6.6290
" />
<path d="M15.4254 6.6290
L17.2724 6.6290
" />
<path d="M6.9884 32.0290
L6.9884 22.7358
" />
<path d="M6.9884 22.7358
L8.0884 21.6358
" />
<path d="M51.5624 4.0890
L58.9284 11.4550
" />
<path d="M58.9284 11.4550
L58.9284 13.3390
" />
<path d="M58.6744 18.8210
L58.9284 18.5670
" />
<path d="M58.9284 18.5670
L58.9284 13.3390
" />
<path d="M52.0704 9.1690
L50.2924 10.9470
" />
<path d="M50.2924 10.9470
L50.2924 18.1650
" />
<path d="M50.2924 23.1390
L50.2924 18.1650
" />
<path d="M43.6884 26.6950
L43.6884 34.8230
" />
<path d="M43.4344 26.4410
L43.6884 26.6950
" />
<path d="M43.6884 39.9030
L43.6884 34.8230
" />
<path d="M41.4024 4.0890
L35.0524 4.0890
" />
<path d="M40.3864 9.1690
L37.8464 6.6290
" />
<path d="M41.9104 9.1690
L40.3864 9.1690
" />
<path d="M37.8464 6.6290
L35.0524 6.6290
" />
<path d="M35.0524 11.7090
L38.8624 11.7090
" />
<path d="M38.8624 11.7090
L43.4344 16.2810
" />
<path d="M52.5784 44.0070
L52.5784 37.8710
" />
<path d="M52.5784 37.8710
L54.1024 36.3470
" />
<path d="M54.1024 36.3470
L54.1024 20.7050
" />
<path d="M55.1184 46.5470
L52.5784 44.0070
" />
<path d="M54.1024 20.7050
L51.5624 18.1650
" />
<path d="M55.1184 44.0470
L61.4684 37.6970
" />
<path d="M61.4684 14.6090
L60.1984 13.3390
" />
<path d="M61.4684 37.6970
L61.4684 14.6090
" />
<path d="M49.0224 42.4993
L49.0224 39.1410
" />
<path d="M55.1184 48.5953
L49.0224 42.4993
" />
<path d="M44.9584 35.0770
L44.9584 34.8230
" />
<path d="M49.0224 39.1410
L44.9584 35.0770
" />
<path d="M55.1184 49.0470
L55.1184 48.5953
" />
<path d="M19.0504 48.2850
L22.6064 44.7290
" />
<path d="M19.0504 58.1910
L19.0504 48.2850
" />
<path d="M21.8444 60.9850
L19.0504 58.1910
" />
<path d="M22.6064 44.7290
L35.0524 44.7290
" />
<path d="M26.8444 60.9850
L26.8444 59.2870
" />
<path d="M26.8444 59.2870
L33.7824 52.3490
" />
<path d="M33.7824 52.3490
L35.0524 52.3490
" />
<path d="M24.3444 60.9850
L21.0824 57.7230
" />
<path d="M21.0824 57.7230
L21.0824 50.0630
" />
<path d="M23.8764 47.2690
L32.5124 47.2690
" />
<path d="M21.0824 50.0630
L23.8764 47.2690
" />
<path d="M32.5124 47.2690
L35.0524 49.8090
" />
<path style="fill:#4D7FC4; fill-opacity:1.0000; stroke:none;fill-rule:evenodd;"
d="M 0.5579,0.5452
0.5121,0.5980
0.5009,0.6495
0.5009,64.4245
0.5206,64.4915
0.5734,64.5373
0.6249,64.5485
63.6379,64.5485
63.7049,64.5288
63.7507,64.4760
63.7619,64.4245
63.7619,58.5777
61.5409,58.5777
61.5409,58.8203
61.5092,59.0608
61.4465,59.2951
61.3536,59.5192
61.3536,59.5192
61.3400,59.5428
61.2323,59.7293
61.2323,59.7293
61.2323,59.7293
61.0847,59.9217
61.0847,59.9217
60.9131,60.0933
60.9131,60.0933
60.8245,60.1613
60.7207,60.2409
60.5106,60.3622
60.2865,60.4551
60.0522,60.5178
59.8718,60.5416
59.8117,60.5495
59.8117,60.5495
59.5691,60.5495
59.5150,60.5424
59.3286,60.5178
59.0943,60.4551
58.8702,60.3622
58.6601,60.2409
58.4677,60.0933
58.2961,59.9217
58.1485,59.7293
58.0272,59.5192
57.9343,59.2951
57.8716,59.0608
57.8399,58.8203
57.8399,58.5777
57.8716,58.3372
57.9343,58.1029
58.0272,57.8788
58.1485,57.6687
58.2961,57.4763
58.2961,57.4763
58.4677,57.3047
58.4677,57.3047
58.6601,57.1571
58.6601,57.1571
58.6601,57.1571
58.8702,57.0358
58.8702,57.0358
59.0943,56.9429
59.3286,56.8802
59.5691,56.8485
59.5691,56.8485
59.8117,56.8485
59.8117,56.8485
60.0522,56.8802
60.2865,56.9429
60.5106,57.0358
60.5106,57.0358
60.7207,57.1571
60.9131,57.3047
60.9131,57.3047
61.0847,57.4763
61.0847,57.4763
61.2323,57.6687
61.3536,57.8788
61.3536,57.8788
61.4465,58.1029
61.5092,58.3372
61.5409,58.5777
63.7619,58.5777
63.7619,14.5105
62.4689,14.5105
62.4689,37.7955
62.4305,37.9888
62.4305,37.9888
62.4084,38.0422
62.3550,38.1709
62.3550,38.1709
62.2455,38.3348
62.2455,38.3348
62.1019,38.4785
62.1018,38.4785
56.6302,43.9501
56.5967,44.0114
56.5939,44.0378
56.5939,44.1533
56.5606,44.3632
56.5183,44.4936
56.4950,44.5654
56.3984,44.7548
56.2735,44.9268
56.1232,45.0771
56.1232,45.0771
55.9586,45.1967
55.9159,45.2520
55.9100,45.3216
55.9426,45.3834
55.9586,45.3973
56.1232,45.5169
56.1232,45.5169
56.2735,45.6672
56.3984,45.8392
56.4950,46.0286
56.5606,46.2308
56.5939,46.4407
56.5939,46.6533
56.5611,46.8604
56.5606,46.8632
56.4950,47.0653
56.4950,47.0654
56.3984,47.2548
56.2735,47.4268
56.1232,47.5771
56.1232,47.5771
55.9586,47.6967
55.9159,47.7520
55.9100,47.8216
55.9426,47.8834
55.9586,47.8973
56.1232,48.0169
56.1232,48.0169
56.2735,48.1672
56.3984,48.3392
56.4950,48.5286
56.5606,48.7308
56.5939,48.9407
56.5939,49.1533
56.5635,49.3453
56.5606,49.3632
56.5098,49.5199
56.4950,49.5654
56.3984,49.7548
56.2735,49.9268
56.1232,50.0771
55.9512,50.2020
55.9512,50.2020
55.9512,50.2021
55.7618,50.2986
55.5596,50.3642
55.3497,50.3975
55.3497,50.3975
54.8871,50.3975
54.8871,50.3975
54.6772,50.3642
54.4750,50.2986
54.2856,50.2021
54.2636,50.1861
54.1136,50.0771
54.1136,50.0771
54.1136,50.0771
53.9633,49.9268
53.9633,49.9268
53.9633,49.9268
53.8806,49.8130
44.9673,49.8130
44.9673,49.8130
44.0041,49.8130
44.0085,49.8174
44.0611,49.9086
44.0884,50.0103
44.0884,50.1157
44.0611,50.2174
44.0085,50.3086
44.0041,50.3130
44.9673,50.3130
44.9147,50.5093
44.9147,50.5093
44.8185,50.7155
44.6881,50.9018
44.5272,51.0627
44.3409,51.1931
44.1347,51.2893
44.1347,51.2893
43.9384,51.3419
43.9384,51.3419
43.9384,50.3787
43.9340,50.3831
43.8428,50.4357
43.7411,50.4630
43.6357,50.4630
43.5340,50.4357
43.4428,50.3831
43.4384,50.3787
43.4384,51.3419
43.2421,51.2893
43.2421,51.2893
43.0359,51.1931
42.8496,51.0627
42.6887,50.9018
42.5583,50.7155
42.4621,50.5093
42.4621,50.5093
42.4095,50.3130
43.3727,50.3130
43.3683,50.3086
43.3157,50.2174
43.2884,50.1157
43.2884,50.0103
43.3157,49.9086
43.3683,49.8174
43.3727,49.8130
42.4095,49.8130
42.4095,49.8130
42.4621,49.6167
42.4621,49.6167
42.5583,49.4105
42.6887,49.2242
42.8496,49.0633
43.0359,48.9329
43.2421,48.8367
43.4384,48.7841
43.4384,49.7473
43.4428,49.7429
43.5340,49.6903
43.6357,49.6630
43.7411,49.6630
43.8428,49.6903
43.9340,49.7429
43.9384,49.7473
43.9384,48.7841
44.1347,48.8367
44.3409,48.9329
44.5272,49.0633
44.6881,49.2242
44.8185,49.4105
44.9147,49.6167
44.9147,49.6167
44.9673,49.8130
53.8806,49.8130
53.8384,49.7548
53.8384,49.7548
53.8383,49.7548
53.7418,49.5654
53.6762,49.3632
53.6429,49.1533
53.6429,48.9407
53.6762,48.7308
53.6926,48.6802
53.6946,48.6103
53.6623,48.5542
48.3846,43.2765
48.3846,43.2765
48.2453,43.1371
48.1358,42.9732
48.0603,42.7912
48.0254,42.6157
48.0219,42.5979
48.0219,39.6068
48.0022,39.5397
47.9856,39.5191
44.9006,36.4341
44.8393,36.4006
44.7696,36.4056
44.7136,36.4475
44.6892,36.5129
44.6889,36.5218
44.6889,39.0254
44.7086,39.0924
44.7113,39.0965
44.8190,39.2503
44.9151,39.4565
44.9151,39.4565
44.9740,39.6763
44.9740,39.6763
44.9939,39.9030
44.9939,39.9030
44.9740,40.1297
44.9740,40.1297
44.9151,40.3495
44.9151,40.3495
44.8190,40.5557
44.8190,40.5557
44.6884,40.7421
44.5275,40.9030
44.5275,40.9030
44.3411,41.0336
44.1349,41.1297
43.9151,41.1886
43.7532,41.2028
43.6884,41.2085
43.6884,41.2085
43.6884,41.2085
43.6317,41.2035
43.4617,41.1886
43.2419,41.1297
43.0357,41.0336
42.8493,40.9030
42.6884,40.7421
42.5578,40.5557
42.4617,40.3495
42.4028,40.1297
42.3829,39.9030
42.3846,39.8844
42.4028,39.6763
42.4028,39.6763
42.4617,39.4565
42.5578,39.2503
42.6655,39.0965
42.6878,39.0303
42.6879,39.0254
42.6879,36.1180
42.6684,36.0516
42.6684,35.1889
42.6660,35.1647
42.6629,35.1490
42.6629,35.1088
42.6487,35.1231
42.5631,35.1724
42.4678,35.1980
42.3690,35.1980
42.2737,35.1724
42.1881,35.1231
42.1684,35.1033
42.1684,36.0434
42.1194,36.0336
42.1194,36.0336
41.9329,35.9563
41.9329,35.9563
41.7650,35.8442
41.7650,35.8442
41.6222,35.7014
41.6222,35.7014
41.5101,35.5335
41.5101,35.5335
41.4328,35.3470
41.4328,35.3470
41.3934,35.1490
41.3934,35.1490
41.3934,35.0730
42.1381,35.0730
42.1183,35.0533
42.0690,34.9677
42.0434,34.8724
42.0434,34.7736
42.0690,34.6783
42.1183,34.5927
42.1381,34.5730
41.3934,34.5730
41.3934,34.4970
41.3934,34.4970
41.4328,34.2990
41.4328,34.2990
41.5101,34.1125
41.5101,34.1125
41.6222,33.9446
41.6222,33.9446
41.7650,33.8018
41.7650,33.8018
41.9329,33.6897
41.9329,33.6897
42.1194,33.6124
42.1194,33.6124
42.1684,33.6026
42.1684,34.5427
42.1881,34.5229
42.2737,34.4736
42.3690,34.4480
42.4678,34.4480
42.5631,34.4736
42.6487,34.5229
42.6629,34.5372
42.6629,34.4970
42.6629,34.4970
42.6660,34.4813
42.6684,34.4571
42.6684,33.5859
42.6819,33.5661
42.6879,33.5280
42.6879,27.5705
42.6682,27.5034
42.6350,27.4689
42.5953,27.4410
42.4344,27.2801
42.3038,27.0937
42.2077,26.8875
42.1488,26.6677
42.1289,26.4410
42.1488,26.2143
42.2077,25.9945
42.3038,25.7883
42.4344,25.6019
42.4344,25.6019
42.5953,25.4410
42.7817,25.3104
42.7817,25.3104
42.9879,25.2143
42.9879,25.2143
43.2077,25.1554
43.2077,25.1554
43.2077,25.1554
43.2077,25.1554
43.2077,25.1554
43.4344,25.1355
43.4344,25.1355
43.6611,25.1554
43.6611,25.1554
43.8809,25.2143
43.8809,25.2143
44.0871,25.3104
44.0871,25.3104
44.2735,25.4410
44.4344,25.6019
44.5650,25.7883
44.5650,25.7883
44.6611,25.9945
44.6611,25.9945
44.7200,26.2143
44.7200,26.2143
44.7399,26.4410
44.7399,26.4410
44.7200,26.6677
44.7200,26.6677
44.7200,26.6677
44.6931,26.7681
44.6889,26.8002
44.6889,33.4485
44.7086,33.5155
44.7614,33.5613
44.8129,33.5725
45.5313,33.5725
45.5313,33.5725
45.5909,33.5789
45.7257,33.6292
45.7257,33.6292
45.8409,33.7155
45.8409,33.7155
45.9272,33.8307
45.9272,33.8307
45.9775,33.9655
45.9839,34.0251
45.9839,34.0251
45.9839,34.6362
46.0036,34.7033
46.0202,34.7239
49.6602,38.3639
49.6602,38.3639
49.6978,38.4015
49.7995,38.5032
49.9090,38.6671
49.9090,38.6671
49.9624,38.7958
49.9778,38.8330
49.9778,38.8331
49.9845,38.8492
49.9845,38.8492
50.0229,39.0425
50.0229,42.0335
50.0426,42.1006
50.0592,42.1212
51.3662,43.4282
51.4275,43.4617
51.4972,43.4567
51.5532,43.4149
51.5776,43.3494
51.5779,43.3405
51.5779,37.7725
51.6163,37.5792
51.6163,37.5792
51.6163,37.5792
51.6190,37.5727
51.6918,37.3971
51.6918,37.3971
51.8013,37.2332
51.8033,37.2312
51.9406,37.0939
51.9406,37.0939
53.0656,35.9689
53.0991,35.9076
53.1019,35.8812
53.1019,33.0490
51.5713,33.0490
51.5713,33.0490
50.6081,33.0490
50.6125,33.0534
50.6651,33.1446
50.6924,33.2463
50.6924,33.3517
50.6651,33.4534
50.6125,33.5446
50.6081,33.5490
51.5713,33.5490
51.5187,33.7453
51.5187,33.7453
51.4225,33.9515
51.2921,34.1378
51.1312,34.2987
50.9449,34.4291
50.7387,34.5253
50.7387,34.5253
50.5424,34.5779
50.5424,34.5779
50.5424,33.6147
50.5380,33.6191
50.4468,33.6717
50.3451,33.6990
50.2397,33.6990
50.1380,33.6717
50.0468,33.6191
50.0424,33.6147
50.0424,34.5779
49.8461,34.5253
49.8461,34.5253
49.6399,34.4291
49.4536,34.2987
49.2927,34.1378
49.1623,33.9515
49.0661,33.7453
49.0661,33.7453
49.0135,33.5490
49.9767,33.5490
49.9723,33.5446
49.9197,33.4534
49.8924,33.3517
49.8924,33.2463
49.9197,33.1446
49.9723,33.0534
49.9767,33.0490
49.0135,33.0490
49.0135,33.0490
49.0661,32.8527
49.0661,32.8527
49.1623,32.6465
49.2927,32.4602
49.4536,32.2993
49.6399,32.1689
49.8461,32.0727
50.0424,32.0201
50.0424,32.9833
50.0468,32.9789
50.1380,32.9263
50.2397,32.8990
50.3451,32.8990
50.4468,32.9263
50.5380,32.9789
50.5424,32.9833
50.5424,32.0201
50.7387,32.0727
50.9449,32.1689
51.1312,32.2993
51.2921,32.4602
51.4225,32.6465
51.5187,32.8527
51.5187,32.8527
51.5713,33.0490
53.1019,33.0490
53.1019,21.1708
53.0822,21.1037
53.0656,21.0831
51.5046,19.5221
51.4433,19.4886
51.3736,19.4936
51.3176,19.5355
51.2932,19.6009
51.2929,19.6098
51.2929,22.2614
51.3126,22.3284
51.3153,22.3325
51.4230,22.4863
51.5191,22.6925
51.5191,22.6925
51.5780,22.9123
51.5780,22.9123
51.5979,23.1390
51.5979,23.1390
51.5780,23.3657
51.5780,23.3657
51.5191,23.5855
51.5191,23.5855
51.4230,23.7917
51.4230,23.7917
51.2924,23.9781
51.1315,24.1390
51.1315,24.1390
50.9451,24.2696
50.7389,24.3657
50.5191,24.4246
50.3572,24.4388
50.2924,24.4445
50.2924,24.4445
50.2924,24.4445
50.2357,24.4395
50.0657,24.4246
49.8459,24.3657
49.6397,24.2696
49.4533,24.1390
49.2924,23.9781
49.1618,23.7917
49.0657,23.5855
49.0068,23.3657
48.9869,23.1390
49.0068,22.9123
49.0657,22.6925
49.1618,22.4863
49.2695,22.3325
49.2918,22.2663
49.2919,22.2614
49.2919,19.4600
49.2724,19.3936
49.2724,18.5309
49.2700,18.5067
49.2669,18.4910
49.2669,18.4508
49.2527,18.4651
49.1671,18.5144
49.0718,18.5400
48.9730,18.5400
48.8777,18.5144
48.7921,18.4651
48.7724,18.4453
48.7724,19.3854
48.7234,19.3756
48.7234,19.3756
48.5369,19.2983
48.5369,19.2983
48.3690,19.1862
48.3690,19.1862
48.2262,19.0434
48.2262,19.0434
48.1141,18.8755
48.1141,18.8755
48.0368,18.6890
48.0368,18.6890
47.9974,18.4910
47.9974,18.4910
47.9974,18.4150
48.7421,18.4150
48.7223,18.3953
48.6730,18.3097
48.6474,18.2144
48.6474,18.1156
48.6730,18.0203
48.7223,17.9347
48.7421,17.9150
47.9974,17.9150
47.9974,17.8390
47.9974,17.8390
48.0368,17.6410
48.0368,17.6410
48.1141,17.4545
48.1141,17.4545
48.2262,17.2866
48.2262,17.2866
48.3690,17.1438
48.3690,17.1438
48.5369,17.0317
48.5369,17.0317
48.7234,16.9544
48.7234,16.9544
48.7724,16.9446
48.7724,17.8847
48.7921,17.8649
48.8777,17.8156
48.9730,17.7900
49.0718,17.7900
49.1671,17.8156
49.2527,17.8649
49.2669,17.8792
49.2669,17.8390
49.2669,17.8390
49.2700,17.8233
49.2724,17.7991
49.2724,16.9279
49.2859,16.9081
49.2919,16.8700
49.2919,16.2810
44.7399,16.2810
44.7399,16.2810
44.7200,16.5077
44.7200,16.5077
44.6611,16.7275
44.6611,16.7275
44.5650,16.9337
44.5650,16.9337
44.4344,17.1201
44.2735,17.2810
44.2357,17.3075
44.0871,17.4116
43.8809,17.5077
43.6611,17.5666
43.4992,17.5808
43.4344,17.5865
43.4344,17.5865
43.4344,17.5865
43.3777,17.5815
43.2077,17.5666
42.9879,17.5077
42.7817,17.4116
42.5953,17.2810
42.4344,17.1201
42.3038,16.9337
42.2077,16.7275
42.1488,16.5077
42.1434,16.4459
42.1179,16.3808
42.1075,16.3690
38.4843,12.7458
38.4230,12.7123
38.3966,12.7095
36.0132,12.7095
35.9461,12.7292
35.9255,12.7458
35.9238,12.7475
35.9238,12.7475
35.7382,12.8774
35.6946,12.9320
35.6874,13.0015
35.7189,13.0639
35.7382,13.0806
35.9238,13.2105
36.0909,13.3776
36.2264,13.5712
36.2264,13.5712
36.3263,13.7853
36.3263,13.7853
36.3875,14.0136
36.3875,14.0136
36.4081,14.2490
36.4081,14.2490
36.3875,14.4844
36.3875,14.4844
36.3263,14.7127
36.3263,14.7127
36.3263,14.7127
36.2432,14.8908
36.2264,14.9268
36.2264,14.9268
36.0909,15.1204
36.0909,15.1204
35.9238,15.2875
35.9238,15.2875
35.7382,15.4174
35.6946,15.4720
35.6874,15.5415
35.7189,15.6039
35.7382,15.6206
35.9238,15.7505
36.0909,15.9176
36.2264,16.1112
36.2264,16.1112
36.3263,16.3253
36.3263,16.3253
36.3875,16.5536
36.3875,16.5536
36.4081,16.7890
36.4081,16.7890
36.3875,17.0244
36.3875,17.0244
36.3263,17.2527
36.3263,17.2527
36.3263,17.2527
36.2522,17.4116
36.2264,17.4668
36.2264,17.4668
36.1181,17.6215
36.1045,17.6410
36.0909,17.6604
36.0909,17.6604
35.9238,17.8275
35.9238,17.8275
35.7382,17.9574
35.6946,18.0120
35.6874,18.0815
35.7189,18.1439
35.7382,18.1606
35.9238,18.2905
36.0909,18.4576
36.2264,18.6512
36.2264,18.6512
36.3263,18.8653
36.3263,18.8653
36.3875,19.0936
36.3875,19.0936
36.4081,19.3290
36.4081,19.3290
36.3875,19.5644
36.3875,19.5644
36.3263,19.7927
36.3263,19.7927
36.3263,19.7927
36.2522,19.9516
36.2264,20.0068
36.2264,20.0068
36.1181,20.1615
36.0909,20.2004
36.0909,20.2004
35.9690,20.3223
35.9355,20.3836
35.9405,20.4533
35.9823,20.5093
36.0133,20.5262
36.1447,20.5752
36.1447,20.5752
36.2599,20.6615
36.2599,20.6615
36.3462,20.7767
36.3462,20.7767
36.3965,20.9115
36.4023,20.9655
36.4029,20.9711
36.4029,20.9711
36.4029,22.7669
36.4029,22.7669
36.3965,22.8265
36.3462,22.9613
36.3462,22.9613
36.2599,23.0765
36.2599,23.0765
36.1447,23.1628
36.1447,23.1628
36.0133,23.2118
35.9574,23.2537
35.9330,23.3191
35.9478,23.3874
35.9690,23.4157
36.0909,23.5376
36.2264,23.7312
36.2264,23.7312
36.3263,23.9453
36.3263,23.9453
36.3875,24.1736
36.3875,24.1736
36.4081,24.4090
36.4081,24.4090
36.3875,24.6444
36.3875,24.6444
36.3263,24.8727
36.3263,24.8727
36.3263,24.8727
36.2264,25.0868
36.2264,25.0868
36.0909,25.2804
36.0909,25.2804
35.9238,25.4475
35.9238,25.4475
35.7382,25.5774
35.6946,25.6320
35.6874,25.7015
35.7189,25.7639
35.7382,25.7806
35.9238,25.9105
36.0909,26.0776
36.2264,26.2712
36.2264,26.2712
36.3263,26.4853
36.3263,26.4853
36.3875,26.7136
36.3875,26.7136
36.4081,26.9490
36.4081,26.9490
36.3875,27.1844
36.3875,27.1844
36.3263,27.4127
36.3263,27.4127
36.3263,27.4127
36.3131,27.4410
36.2264,27.6268
36.2264,27.6268
36.0909,27.8204
36.0909,27.8204
35.9238,27.9875
35.9238,27.9875
35.7382,28.1174
35.6946,28.1720
35.6874,28.2415
35.7189,28.3039
35.7382,28.3206
35.9238,28.4505
36.0909,28.6176
36.2264,28.8112
36.2264,28.8112
36.3263,29.0253
36.3263,29.0253
36.3875,29.2536
36.3875,29.2536
36.4081,29.4890
36.4081,29.4890
36.3875,29.7244
36.3875,29.7244
36.3263,29.9527
36.3263,29.9527
36.3263,29.9527
36.2264,30.1668
36.2264,30.1668
36.0909,30.3604
36.0909,30.3604
35.9238,30.5275
35.9238,30.5275
35.7382,30.6574
35.6946,30.7120
35.6874,30.7815
35.7189,30.8439
35.7382,30.8606
35.9238,30.9905
36.0909,31.1576
36.2264,31.3512
36.2264,31.3512
36.3263,31.5653
36.3263,31.5653
36.3875,31.7936
36.3875,31.7936
36.4081,32.0290
36.4081,32.0290
36.3875,32.2644
36.3875,32.2644
36.3263,32.4927
36.3263,32.4927
36.3263,32.4927
36.3008,32.5474
36.2264,32.7068
36.2264,32.7068
36.2054,32.7368
36.0909,32.9004
36.0909,32.9004
35.9690,33.0223
35.9355,33.0836
35.9405,33.1533
35.9823,33.2093
36.0133,33.2262
36.1447,33.2752
36.1447,33.2752
36.2599,33.3615
36.2599,33.3615
36.3462,33.4767
36.3462,33.4767
36.3965,33.6115
36.4029,33.6711
36.4029,33.6711
36.4029,33.6711
36.4029,35.4669
36.4029,35.4669
36.3965,35.5265
36.3462,35.6613
36.3462,35.6613
36.2599,35.7765
36.2599,35.7765
36.1447,35.8628
36.1447,35.8628
36.0133,35.9118
35.9574,35.9537
35.9330,36.0191
35.9478,36.0874
35.9690,36.1157
36.0909,36.2376
36.2264,36.4312
36.2264,36.4312
36.3263,36.6453
36.3263,36.6453
36.3875,36.8736
36.3875,36.8736
36.4081,37.1090
36.4081,37.1090
36.3875,37.3444
36.3875,37.3444
36.3263,37.5727
36.3263,37.5727
36.3263,37.5727
36.2331,37.7725
36.2264,37.7868
36.2264,37.7868
36.0909,37.9804
36.0909,37.9804
35.9238,38.1475
35.9238,38.1475
35.7382,38.2774
35.6946,38.3320
35.6874,38.4015
35.7189,38.4639
35.7382,38.4806
35.9238,38.6105
36.0909,38.7776
36.2264,38.9712
36.2264,38.9712
36.3263,39.1853
36.3263,39.1853
36.3875,39.4136
36.3875,39.4136
36.4081,39.6490
36.4081,39.6490
36.3875,39.8844
36.3875,39.8844
36.3263,40.1127
36.3263,40.1127
36.3263,40.1127
36.2264,40.3268
36.2264,40.3268
36.0909,40.5204
36.0909,40.5204
35.9238,40.6875
35.9238,40.6875
35.7382,40.8174
35.6946,40.8720
35.6874,40.9415
35.7189,41.0039
35.7382,41.0206
35.9238,41.1505
36.0909,41.3176
36.2264,41.5112
36.2264,41.5112
36.3263,41.7253
36.3263,41.7253
36.3875,41.9536
36.3875,41.9536
36.4081,42.1890
36.4081,42.1890
36.3875,42.4244
36.3875,42.4244
36.3263,42.6527
36.3263,42.6527
36.3263,42.6527
36.2857,42.7397
36.2264,42.8668
36.2264,42.8668
36.0909,43.0604
36.0909,43.0604
35.9238,43.2275
35.9238,43.2275
35.7382,43.3574
35.6946,43.4120
35.6874,43.4815
35.7189,43.5439
35.7382,43.5606
35.9238,43.6905
36.0909,43.8576
36.2264,44.0512
36.2264,44.0512
36.3263,44.2653
36.3263,44.2653
36.3875,44.4936
36.3875,44.4936
36.4081,44.7290
36.4081,44.7290
36.3875,44.9644
36.3875,44.9644
36.3263,45.1927
36.3263,45.1927
36.3263,45.1927
36.2662,45.3216
36.2264,45.4068
36.2264,45.4068
36.1494,45.5169
36.0909,45.6004
36.0909,45.6004
35.9690,45.7223
35.9355,45.7836
35.9405,45.8533
35.9823,45.9093
36.0133,45.9262
36.1447,45.9752
36.1447,45.9752
36.2599,46.0615
36.2599,46.0615
36.3462,46.1767
36.3462,46.1767
36.3965,46.3115
36.3994,46.3382
36.4029,46.3711
36.4029,46.3711
36.4029,48.1669
36.4029,48.1669
36.3965,48.2265
36.3462,48.3613
36.3462,48.3613
36.2599,48.4765
36.2599,48.4765
36.1447,48.5628
36.1447,48.5628
36.0133,48.6118
35.9574,48.6537
35.9330,48.7191
35.9478,48.7874
35.9690,48.8157
36.0909,48.9376
36.2264,49.1312
36.2264,49.1312
36.3263,49.3453
36.3263,49.3453
36.3875,49.5736
36.3875,49.5736
36.4081,49.8090
36.4081,49.8090
36.3875,50.0444
36.3875,50.0444
36.3263,50.2727
36.3263,50.2727
36.3263,50.2727
36.2681,50.3975
36.2264,50.4868
36.2264,50.4868
36.0909,50.6804
36.0909,50.6804
35.9238,50.8475
35.9238,50.8475
35.7382,50.9774
35.6946,51.0320
35.6874,51.1015
35.7189,51.1639
35.7382,51.1806
35.9238,51.3105
36.0909,51.4776
36.2264,51.6712
36.2264,51.6712
36.3263,51.8853
36.3263,51.8853
36.3875,52.1136
36.3875,52.1136
36.4081,52.3490
36.4081,52.3490
36.3875,52.5844
36.3875,52.5844
36.3263,52.8127
36.3263,52.8127
36.3263,52.8127
36.2311,53.0169
36.2264,53.0268
36.2264,53.0268
36.1349,53.1575
36.0909,53.2204
35.9238,53.3875
35.8592,53.4327
35.7302,53.5230
35.7302,53.5230
35.7302,53.5230
35.5161,53.6229
35.2878,53.6841
35.0995,53.7005
35.0524,53.7047
35.0524,53.7047
35.0524,53.7047
35.0132,53.7012
34.8170,53.6841
34.5887,53.6229
34.3746,53.5230
34.2532,53.4380
34.1870,53.4157
34.1192,53.4327
34.0944,53.4519
27.8812,59.6651
27.8477,59.7264
27.8449,59.7528
27.8449,59.8998
27.8646,59.9668
27.8739,59.9794
27.9944,60.1452
28.0497,60.1879
28.1193,60.1939
28.1811,60.1613
28.1950,60.1452
28.3147,59.9805
28.3147,59.9805
28.4649,59.8303
28.4649,59.8303
28.6368,59.7054
28.8262,59.6089
29.0283,59.5432
29.0944,59.5328
29.0944,60.5809
29.1611,60.5424
29.2819,60.5100
29.4069,60.5100
29.5277,60.5424
29.5944,60.5809
29.5944,59.5328
29.5944,59.5328
29.6605,59.5432
29.8626,59.6089
30.0520,59.7054
30.2239,59.8303
30.2239,59.8303
30.3741,59.9805
30.3741,59.9805
30.4990,60.1524
30.5955,60.3418
30.6612,60.5439
30.6612,60.5439
30.6914,60.7350
29.7485,60.7350
29.7870,60.8017
29.8194,60.9225
29.8194,61.0475
29.7870,61.1683
29.7485,61.2350
30.6914,61.2350
30.6612,61.4261
30.6612,61.4261
30.5955,61.6282
30.4990,61.8176
30.3741,61.9895
30.3741,61.9895
30.2239,62.1397
30.2239,62.1397
30.0520,62.2646
29.8626,62.3611
29.6605,62.4268
29.5944,62.4372
29.5944,61.3891
29.5277,61.4276
29.4069,61.4600
29.2819,61.4600
29.1611,61.4276
29.0944,61.3891
29.0944,62.4372
29.0283,62.4268
29.0283,62.4268
28.8262,62.3611
28.6368,62.2646
28.4649,62.1397
28.4649,62.1397
28.3147,61.9895
28.1950,61.8248
28.1397,61.7821
28.0701,61.7761
28.0083,61.8087
27.9944,61.8248
27.8745,61.9898
27.8745,61.9898
27.7242,62.1401
27.5522,62.2650
27.5522,62.2650
27.5522,62.2651
27.3628,62.3616
27.1606,62.4272
26.9507,62.4605
26.9507,62.4605
26.7381,62.4605
26.7381,62.4605
26.5282,62.4272
26.3260,62.3616
26.1366,62.2651
26.1146,62.2491
25.9646,62.1401
25.9646,62.1401
25.9646,62.1401
25.8143,61.9898
25.6947,61.8252
25.6394,61.7825
25.5698,61.7766
25.5080,61.8092
25.4941,61.8252
25.3905,61.9678
25.3745,61.9898
25.2242,62.1401
25.0522,62.2650
25.0522,62.2650
25.0522,62.2651
24.8628,62.3616
24.6606,62.4272
24.4507,62.4605
24.4507,62.4605
24.2381,62.4605
24.2381,62.4605
24.0282,62.4272
23.8260,62.3616
23.6366,62.2651
23.4646,62.1401
23.3258,62.0013
23.2645,61.9678
23.1948,61.9728
23.1389,62.0147
23.1326,62.0239
23.1292,62.0293
23.1292,62.0293
23.0371,62.1787
22.9131,62.3027
22.7637,62.3948
22.5972,62.4500
22.4944,62.4605
21.1944,62.4605
21.0916,62.4500
20.9251,62.3948
20.7757,62.3027
20.6517,62.1787
20.5596,62.0293
20.5044,61.8628
20.4939,61.7600
20.4939,61.1008
20.4742,61.0337
20.4576,61.0131
18.2762,58.8317
7.1849,58.8317
7.1849,59.0743
7.1532,59.3148
7.0905,59.5491
6.9976,59.7732
6.9976,59.7732
6.8763,59.9833
6.8763,59.9833
6.8763,59.9833
6.7287,60.1757
6.7287,60.1757
6.5571,60.3473
6.5571,60.3473
6.4441,60.4340
6.3647,60.4949
6.1546,60.6162
5.9305,60.7091
5.6962,60.7718
5.5158,60.7956
5.4557,60.8035
5.4557,60.8035
5.2131,60.8035
5.1650,60.7972
4.9726,60.7718
4.7383,60.7091
4.5142,60.6162
4.3041,60.4949
4.1117,60.3473
3.9401,60.1757
3.7925,59.9833
3.6712,59.7732
3.5783,59.5491
3.5156,59.3148
3.4839,59.0743
3.4839,58.8317
3.5156,58.5912
3.5783,58.3569
3.6712,58.1328
3.7925,57.9227
3.9401,57.7303
3.9401,57.7303
4.1117,57.5587
4.1117,57.5587
4.3041,57.4111
4.3041,57.4111
4.3041,57.4111
4.5142,57.2898
4.5142,57.2898
4.7383,57.1969
4.9726,57.1342
5.2131,57.1025
5.2131,57.1025
5.4557,57.1025
5.4557,57.1025
5.6962,57.1342
5.9305,57.1969
6.1546,57.2898
6.1546,57.2898
6.3647,57.4111
6.5571,57.5587
6.5571,57.5587
6.7287,57.7303
6.7287,57.7303
6.8763,57.9227
6.9976,58.1328
6.9976,58.1328
7.0905,58.3569
7.1532,58.5912
7.1849,58.8317
18.2762,58.8317
18.2733,58.8288
18.1638,58.6649
18.0883,58.4828
18.0499,58.2895
18.0499,58.0925
18.0499,53.6712
18.0302,53.6042
17.9774,53.5584
17.9083,53.5485
17.8735,53.5588
17.7361,53.6229
17.5078,53.6841
17.3195,53.7005
17.2724,53.7047
17.2724,53.7047
17.2724,53.7047
17.2332,53.7012
17.0370,53.6841
16.8087,53.6229
16.5946,53.5230
16.4010,53.3875
16.2339,53.2204
16.0984,53.0268
15.9985,52.8127
15.9373,52.5844
15.9167,52.3490
15.9373,52.1136
15.9985,51.8853
16.0984,51.6712
16.1679,51.5719
16.2339,51.4776
16.4010,51.3105
16.4010,51.3105
16.5866,51.1806
16.6302,51.1260
16.6374,51.0565
16.6059,50.9941
16.5866,50.9774
16.5402,50.9450
16.4010,50.8475
16.2339,50.6804
16.0984,50.4868
15.9985,50.2727
15.9373,50.0444
15.9167,49.8090
15.9373,49.5736
15.9985,49.3453
16.0984,49.1312
16.2317,48.9407
16.2339,48.9376
16.2386,48.9329
16.3558,48.8157
16.3893,48.7544
16.3843,48.6847
16.3425,48.6287
16.3115,48.6118
16.1801,48.5628
16.0649,48.4765
15.9786,48.3613
15.9283,48.2265
15.9219,48.1669
15.9219,46.3711
15.9283,46.3115
15.9300,46.3069
15.9786,46.1767
15.9786,46.1767
16.0649,46.0615
16.0649,46.0615
16.1801,45.9752
16.1801,45.9752
16.3115,45.9262
16.3674,45.8843
16.3918,45.8189
16.3770,45.7506
16.3558,45.7223
16.2339,45.6004
16.0984,45.4068
15.9985,45.1927
15.9373,44.9644
15.9167,44.7290
15.9373,44.4936
15.9985,44.2653
16.0984,44.0512
16.1679,43.9519
16.2339,43.8576
16.4010,43.6905
16.4010,43.6905
16.5866,43.5606
16.6302,43.5060
16.6374,43.4365
16.6059,43.3741
16.5866,43.3574
16.5501,43.3319
16.4010,43.2275
16.2339,43.0604
16.0984,42.8668
15.9985,42.6527
15.9373,42.4244
15.9167,42.1890
15.9373,41.9536
15.9985,41.7253
16.0984,41.5112
16.2339,41.3176
16.2339,41.3176
16.4010,41.1505
16.4010,41.1505
16.5866,41.0206
16.6302,40.9660
16.6374,40.8965
16.6059,40.8341
16.5866,40.8174
16.4790,40.7421
16.4010,40.6875
16.2339,40.5204
16.0984,40.3268
15.9985,40.1127
15.9373,39.8844
15.9167,39.6490
15.9373,39.4136
15.9985,39.1853
16.0984,38.9712
16.1838,38.8492
16.2339,38.7776
16.4010,38.6105
16.4010,38.6105
16.5866,38.4806
16.6302,38.4260
16.6374,38.3565
16.6059,38.2941
16.5866,38.2774
16.5461,38.2491
16.4010,38.1475
16.2339,37.9804
16.0984,37.7868
15.9985,37.5727
15.9373,37.3444
15.9167,37.1090
15.9181,37.0939
15.9373,36.8736
15.9373,36.8736
15.9985,36.6453
16.0984,36.4312
16.1198,36.4006
16.2339,36.2376
16.2491,36.2224
16.3558,36.1157
16.3893,36.0544
16.3843,35.9847
16.3425,35.9287
16.3115,35.9118
16.1801,35.8628
16.0649,35.7765
15.9786,35.6613
15.9283,35.5265
15.9219,35.4669
15.9219,33.6711
15.9283,33.6115
15.9289,33.6099
15.9786,33.4767
15.9786,33.4767
16.0649,33.3615
16.0649,33.3615
16.1801,33.2752
16.1801,33.2752
16.3115,33.2262
16.3674,33.1843
16.3918,33.1189
16.3770,33.0506
16.3558,33.0223
16.2339,32.9004
16.0984,32.7068
15.9985,32.4927
15.9373,32.2644
15.9167,32.0290
15.9373,31.7936
15.9985,31.5653
16.0984,31.3512
16.1194,31.3212
16.2339,31.1576
16.4010,30.9905
16.4010,30.9905
16.5866,30.8606
16.6302,30.8060
16.6374,30.7365
16.6059,30.6741
16.5866,30.6574
16.5644,30.6419
16.4010,30.5275
16.2339,30.3604
16.0984,30.1668
15.9985,29.9527
15.9373,29.7244
15.9167,29.4890
15.9373,29.2536
15.9985,29.0253
16.0984,28.8112
16.1545,28.7310
16.2339,28.6176
16.4010,28.4505
16.4010,28.4505
16.5866,28.3206
16.6302,28.2660
16.6374,28.1965
16.6059,28.1341
16.5866,28.1174
16.5644,28.1019
16.4010,27.9875
16.2339,27.8204
16.0984,27.6268
15.9985,27.4127
15.9373,27.1844
15.9167,26.9490
15.9373,26.7136
15.9985,26.4853
16.0984,26.2712
16.1382,26.2143
16.2339,26.0776
16.4010,25.9105
16.4010,25.9105
16.5866,25.7806
16.6302,25.7260
16.6374,25.6565
16.6059,25.5941
16.5866,25.5774
16.5644,25.5619
16.4010,25.4475
16.2339,25.2804
16.0984,25.0868
15.9985,24.8727
15.9373,24.6444
15.9167,24.4090
15.9373,24.1736
15.9985,23.9453
16.0984,23.7312
16.2004,23.5855
16.2339,23.5376
16.2755,23.4960
16.3558,23.4157
16.3893,23.3544
16.3843,23.2847
16.3425,23.2287
16.3115,23.2118
16.1801,23.1628
16.0649,23.0765
15.9786,22.9613
15.9283,22.8265
15.9219,22.7669
15.9219,20.9711
15.9283,20.9115
15.9338,20.8967
15.9786,20.7767
15.9786,20.7767
16.0649,20.6615
16.0649,20.6615
16.1801,20.5752
16.1801,20.5752
16.3115,20.5262
16.3674,20.4843
16.3918,20.4189
16.3770,20.3506
16.3558,20.3223
16.2339,20.2004
16.0984,20.0068
15.9985,19.7927
15.9373,19.5644
15.9167,19.3290
15.9373,19.0936
15.9985,18.8653
16.0984,18.6512
16.1225,18.6167
16.2339,18.4576
16.4010,18.2905
16.4010,18.2905
16.5866,18.1606
16.6302,18.1060
16.6374,18.0365
16.6059,17.9741
16.5866,17.9574
16.4545,17.8649
16.4010,17.8275
16.2339,17.6604
16.0984,17.4668
15.9985,17.2527
15.9373,17.0244
15.9167,16.7890
15.9373,16.5536
15.9985,16.3253
16.0984,16.1112
16.1382,16.0543
16.2339,15.9176
16.4010,15.7505
16.4010,15.7505
16.5866,15.6206
16.6302,15.5660
16.6374,15.4965
16.6059,15.4341
16.5866,15.4174
16.5644,15.4019
16.4010,15.2875
16.2339,15.1204
16.0984,14.9268
15.9985,14.7127
15.9373,14.4844
15.9167,14.2490
15.9373,14.0136
15.9985,13.7853
16.0984,13.5712
16.0997,13.5693
16.2339,13.3776
16.4010,13.2105
16.4010,13.2105
16.5866,13.0806
16.6302,13.0260
16.6374,12.9565
16.6059,12.8941
16.5866,12.8774
16.4974,12.8150
16.4010,12.7475
16.2339,12.5804
16.0984,12.3868
15.9985,12.1727
15.9373,11.9444
15.9167,11.7090
15.9373,11.4736
15.9985,11.2453
16.0984,11.0312
16.1334,10.9811
16.2339,10.8376
16.2933,10.7782
16.3562,10.7153
16.3897,10.6540
16.3847,10.5843
16.3428,10.5283
16.3119,10.5114
16.1803,10.4624
16.1803,10.4623
16.0652,10.3762
16.0652,10.3762
15.9790,10.2611
15.9790,10.2611
15.9288,10.1264
15.9288,10.1264
15.9224,10.0668
15.9224,10.0668
15.9224,9.4190
16.8278,9.4190
16.7972,9.3659
16.7624,9.2361
16.7624,9.1019
16.7972,8.9721
16.8278,8.9190
15.9224,8.9190
15.9224,8.2712
15.9224,8.2712
15.9288,8.2116
15.9288,8.2116
15.9790,8.0769
15.9790,8.0769
16.0652,7.9618
16.0652,7.9618
16.1803,7.8756
16.1803,7.8756
16.1963,7.8697
16.2522,7.8278
16.2767,7.7623
16.2618,7.6941
16.2124,7.6447
16.1530,7.6295
15.8912,7.6295
15.8241,7.6492
15.8035,7.6658
9.6277,13.8416
9.5943,13.9029
9.5918,13.9395
9.5940,13.9660
9.5940,13.9660
9.5940,13.9660
9.5735,14.2138
9.5735,14.2138
9.5125,14.4549
9.4126,14.6826
9.2766,14.8908
9.2766,14.8908
9.1217,15.0590
9.0907,15.1217
9.0889,15.1430
9.0889,20.7177
9.1086,20.7848
9.1614,20.8305
9.1696,20.8339
9.2910,20.8792
9.2910,20.8792
9.4062,20.9655
9.4062,20.9655
9.4924,21.0807
9.4924,21.0807
9.5427,21.2155
9.5491,21.2751
9.5491,21.2751
9.5491,21.2751
9.5491,22.9709
9.5491,22.9709
9.5427,23.0305
9.4924,23.1653
9.4924,23.1653
9.4062,23.2805
9.4062,23.2805
9.2910,23.3668
9.2910,23.3668
9.1561,23.4171
9.1561,23.4171
9.1492,23.4178
9.0965,23.4235
8.1129,23.4235
8.0459,23.4432
8.0001,23.4960
7.9889,23.5475
7.9889,30.9182
8.0086,30.9853
8.0252,31.0059
8.1685,31.1492
8.1685,31.1492
8.2934,31.3212
8.3900,31.5106
8.4556,31.7128
8.4684,31.7936
8.4889,31.9227
8.4889,32.1353
8.4556,32.3452
8.4077,32.4927
8.3900,32.5474
8.2934,32.7368
8.1685,32.9088
8.0293,33.0480
7.9958,33.1093
8.0008,33.1790
8.0427,33.2349
8.0519,33.2412
8.2067,33.3367
8.2067,33.3367
8.3307,33.4607
8.4228,33.6099
8.4228,33.6099
8.4779,33.7763
8.4779,33.7763
8.4884,33.8790
8.4884,34.2790
7.4214,34.2790
7.4543,34.3360
7.4884,34.4632
7.4884,34.5948
7.4543,34.7220
7.4214,34.7790
8.4884,34.7790
8.4884,35.1790
8.4779,35.2817
8.4228,35.4481
8.4228,35.4481
8.3307,35.5973
8.2067,35.7213
8.0575,35.8134
8.0575,35.8134
7.8911,35.8685
7.8911,35.8685
7.7884,35.8790
7.2384,35.8790
7.2384,35.8790
7.2384,34.9620
7.1814,34.9949
7.0542,35.0290
6.9226,35.0290
6.7954,34.9949
6.7384,34.9620
6.7384,35.8790
6.1884,35.8790
6.1884,35.8790
6.0857,35.8685
5.9193,35.8134
5.9193,35.8134
5.7701,35.7213
5.6461,35.5973
5.5540,35.4481
5.5540,35.4481
5.4989,35.2817
5.4989,35.2817
5.4884,35.1790
5.4884,35.1790
5.4884,34.7790
6.5554,34.7790
6.5225,34.7220
6.4884,34.5948
6.4884,34.4632
6.5225,34.3360
6.5554,34.2790
5.4884,34.2790
5.4884,33.8790
5.4884,33.8790
5.4989,33.7763
5.5540,33.6099
5.5540,33.6099
5.6461,33.4607
5.7701,33.3367
5.9249,33.2412
5.9716,33.1892
5.9828,33.1203
5.9550,33.0562
5.9475,33.0480
5.8083,32.9088
5.8022,32.9004
5.6834,32.7368
5.6834,32.7368
5.6833,32.7368
5.5868,32.5474
5.5212,32.3452
5.4879,32.1353
5.4879,31.9227
5.5212,31.7128
5.5868,31.5106
5.6833,31.3212
5.6834,31.3212
5.6834,31.3212
5.8083,31.1492
5.9516,31.0059
5.9851,30.9446
5.9879,30.9182
5.9879,23.5424
5.9682,23.4753
5.9154,23.4296
5.8531,23.4188
5.7486,23.4280
5.7486,23.4280
5.5220,23.4081
5.5220,23.4081
5.3023,23.3493
5.3023,23.3493
5.0961,23.2531
5.0232,23.2020
5.7022,22.5230
5.6960,22.5230
5.5942,22.4957
5.5030,22.4431
5.4285,22.3686
5.3759,22.2774
5.3486,22.1757
5.3486,22.1694
4.6696,22.8485
4.6185,22.7755
4.5224,22.5693
4.5224,22.5693
4.4635,22.3496
4.4635,22.3496
4.4437,22.1230
4.4437,22.1230
4.4635,21.8964
4.4635,21.8964
4.5224,21.6767
4.5224,21.6767
4.6185,21.4705
4.6185,21.4705
4.6696,21.3975
5.3486,22.0766
5.3486,22.0703
5.3759,21.9686
5.4285,21.8774
5.5030,21.8029
5.5942,21.7503
5.6960,21.7230
5.7022,21.7230
5.0232,21.0440
5.0961,20.9929
5.3023,20.8967
5.3023,20.8967
5.5220,20.8379
5.5220,20.8379
5.7486,20.8180
5.7486,20.8180
5.9752,20.8379
5.9752,20.8379
6.1949,20.8967
6.1950,20.8967
6.4011,20.9929
6.4011,20.9929
6.4741,21.0440
6.4741,21.0440
5.7951,21.7230
5.8013,21.7230
5.9030,21.7503
5.9942,21.8029
6.0687,21.8774
6.1214,21.9686
6.1486,22.0703
6.1486,22.0766
6.8328,21.3924
6.8818,21.3825
6.9320,21.3339
6.9466,21.2784
6.9477,21.2784
6.9478,21.2784
6.9478,21.2784
6.9479,21.2784
6.9481,21.2751
6.9481,21.2751
6.9545,21.2155
7.0048,21.0807
7.0632,21.0027
7.0876,20.9373
7.0879,20.9284
7.0879,15.1430
7.0682,15.0760
7.0551,15.0590
6.9002,14.8908
6.7642,14.6826
6.6643,14.4549
6.6033,14.2138
6.5867,14.0136
6.5828,13.9660
6.5828,13.9660
4.5935,13.9660
4.5935,13.9660
4.5730,14.2137
4.5730,14.2137
4.5120,14.4547
4.4121,14.6824
4.3118,14.8359
3.5714,14.0954
3.5543,14.1590
3.4885,14.2730
3.3954,14.3661
3.2814,14.4319
3.2178,14.4490
3.9585,15.1896
3.9116,15.2261
3.9116,15.2261
3.6930,15.3444
3.6930,15.3444
3.4579,15.4251
3.2127,15.4660
2.9641,15.4660
2.7189,15.4251
2.4838,15.3444
2.4838,15.3444
2.2652,15.2261
2.2652,15.2261
2.2183,15.1896
2.9590,14.4490
2.8954,14.4319
2.7814,14.3661
2.6883,14.2730
2.6225,14.1590
2.6054,14.0954
1.8650,14.8359
1.7647,14.6824
1.6648,14.4547
1.6038,14.2137
1.6038,14.2137
1.5833,13.9660
1.5833,13.9660
1.6038,13.7183
1.6038,13.7183
1.6648,13.4773
1.7647,13.2496
1.8650,13.0961
2.6054,13.8366
2.6225,13.7730
2.6883,13.6590
2.7814,13.5659
2.8954,13.5001
2.9590,13.4830
2.2183,12.7424
2.2183,12.7424
2.2652,12.7059
2.4838,12.5876
2.4838,12.5876
2.7189,12.5069
2.9641,12.4660
3.2127,12.4660
3.4579,12.5069
3.6930,12.5876
3.6930,12.5876
3.9116,12.7059
3.9585,12.7424
3.9585,12.7424
3.2178,13.4830
3.2814,13.5001
3.3954,13.5659
3.4885,13.6590
3.5543,13.7730
3.5714,13.8366
4.3118,13.0961
4.4121,13.2496
4.5120,13.4773
4.5730,13.7183
4.5730,13.7183
4.5935,13.9660
6.5828,13.9660
6.6033,13.7182
6.6033,13.7182
6.6643,13.4771
6.7642,13.2494
6.9002,13.0412
6.9262,13.0130
7.0687,12.8583
7.2649,12.7055
7.2649,12.7055
7.2649,12.7055
7.4836,12.5872
7.4836,12.5872
7.7188,12.5064
7.9641,12.4655
8.1226,12.4655
8.1897,12.4458
8.2103,12.4292
14.6439,5.9956
14.6439,5.9955
14.7876,5.8519
14.7876,5.8519
14.9515,5.7424
14.9515,5.7424
15.0241,5.7123
15.0802,5.6890
15.1336,5.6669
15.1336,5.6669
15.1336,5.6669
15.2302,5.6477
15.3269,5.6285
15.3269,5.6285
16.3116,5.6285
16.3787,5.6088
16.3993,5.5922
16.4010,5.5905
16.4010,5.5905
16.5866,5.4606
16.6302,5.4060
16.6374,5.3365
16.6059,5.2741
16.5866,5.2574
16.5325,5.2196
16.4010,5.1275
16.2339,4.9604
16.0984,4.7668
15.9985,4.5527
15.9779,4.4757
7.1849,4.4757
7.1849,4.7183
7.1532,4.9588
7.0905,5.1931
7.0120,5.3824
6.9976,5.4172
6.8763,5.6273
6.8763,5.6273
6.8763,5.6273
6.7287,5.8197
6.7287,5.8197
6.5571,5.9913
6.5571,5.9913
6.3647,6.1389
6.1546,6.2602
5.9305,6.3531
5.6962,6.4158
5.5158,6.4396
5.4557,6.4475
5.4557,6.4475
5.2131,6.4475
5.1650,6.4412
4.9726,6.4158
4.7383,6.3531
4.5142,6.2602
4.3041,6.1389
4.1117,5.9913
3.9401,5.8197
3.7925,5.6273
3.6712,5.4172
3.5783,5.1931
3.5156,4.9588
3.4839,4.7183
3.4839,4.4757
3.5156,4.2352
3.5783,4.0009
3.6712,3.7768
3.7925,3.5667
3.8926,3.4363
3.9401,3.3743
3.9401,3.3743
4.1117,3.2027
4.1117,3.2027
4.3041,3.0551
4.3041,3.0551
4.3041,3.0551
4.5142,2.9338
4.5596,2.9150
4.7383,2.8409
4.9726,2.7782
5.2131,2.7465
5.2131,2.7465
5.4557,2.7465
5.4557,2.7465
5.6962,2.7782
5.9305,2.8409
6.1546,2.9338
6.1546,2.9338
6.3365,3.0388
6.3568,3.0505
6.3647,3.0551
6.5571,3.2027
6.5571,3.2027
6.7287,3.3743
6.7287,3.3743
6.8763,3.5667
6.9976,3.7768
6.9976,3.7768
7.0905,4.0009
7.1532,4.2352
7.1849,4.4757
15.9779,4.4757
15.9373,4.3244
15.9167,4.0890
15.9373,3.8536
15.9985,3.6253
16.0984,3.4112
16.1242,3.3743
16.2339,3.2176
16.4010,3.0505
16.4010,3.0505
16.4124,3.0425
16.4399,3.0233
16.5946,2.9150
16.5946,2.9150
16.7076,2.8623
16.8087,2.8151
16.8087,2.8151
16.8087,2.8151
17.0370,2.7539
17.0370,2.7539
17.2724,2.7333
17.2724,2.7333
17.5078,2.7539
17.5078,2.7539
17.7361,2.8151
17.7361,2.8151
17.9502,2.9150
17.9502,2.9150
18.1438,3.0505
18.3109,3.2176
18.4464,3.4112
18.4464,3.4112
18.5463,3.6253
18.5463,3.6253
18.6075,3.8536
18.6075,3.8536
18.6281,4.0890
18.6281,4.0890
18.6075,4.3244
18.6075,4.3244
18.5463,4.5527
18.5463,4.5527
18.5463,4.5527
18.4581,4.7417
18.4464,4.7668
18.4464,4.7668
18.3617,4.8878
18.3120,4.9588
18.3109,4.9604
18.3109,4.9604
18.1438,5.1275
18.1438,5.1275
17.9582,5.2574
17.9146,5.3120
17.9074,5.3815
17.9389,5.4439
17.9582,5.4606
18.1438,5.5905
18.3109,5.7576
18.4464,5.9512
18.4464,5.9512
18.5463,6.1653
18.5463,6.1653
18.6075,6.3936
18.6075,6.3936
18.6281,6.6290
18.6281,6.6290
18.6075,6.8644
18.6075,6.8644
18.5463,7.0927
18.5463,7.0927
18.5463,7.0927
18.4734,7.2490
18.4464,7.3068
18.4464,7.3068
18.3381,7.4615
18.3109,7.5004
18.3109,7.5004
18.1886,7.6227
18.1551,7.6840
18.1601,7.7537
18.2020,7.8097
18.2329,7.8266
18.3645,7.8756
18.3645,7.8756
18.4796,7.9618
18.4796,7.9618
18.5658,8.0769
18.5658,8.0769
18.6160,8.2116
18.6160,8.2116
18.6224,8.2712
18.6224,8.9190
17.7170,8.9190
17.7476,8.9721
17.7824,9.1019
17.7824,9.2361
17.7476,9.3659
17.7170,9.4190
18.6224,9.4190
18.6224,10.0668
18.6160,10.1264
18.6160,10.1264
18.5658,10.2611
18.5658,10.2611
18.4796,10.3762
18.4796,10.3762
18.3645,10.4623
18.3645,10.4624
18.2329,10.5114
18.1770,10.5533
18.1526,10.6188
18.1674,10.6870
18.1886,10.7153
18.3109,10.8376
18.4464,11.0312
18.4464,11.0312
18.5463,11.2453
18.5463,11.2453
18.6075,11.4736
18.6075,11.4736
18.6281,11.7090
18.6281,11.7090
18.6075,11.9444
18.6075,11.9444
18.5463,12.1727
18.5463,12.1727
18.5463,12.1727
18.4464,12.3868
18.4464,12.3868
18.3109,12.5804
18.3109,12.5804
18.1438,12.7475
18.1438,12.7475
17.9582,12.8774
17.9146,12.9320
17.9074,13.0015
17.9389,13.0639
17.9582,13.0806
18.1438,13.2105
18.3109,13.3776
18.4464,13.5712
18.4464,13.5712
18.5463,13.7853
18.5463,13.7853
18.6075,14.0136
18.6075,14.0136
18.6281,14.2490
18.6281,14.2490
18.6075,14.4844
18.6075,14.4844
18.5463,14.7127
18.5463,14.7127
18.5463,14.7127
18.4632,14.8908
18.4464,14.9268
18.4464,14.9268
18.3109,15.1204
18.3109,15.1204
18.1438,15.2875
18.1438,15.2875
17.9582,15.4174
17.9146,15.4720
17.9074,15.5415
17.9389,15.6039
17.9582,15.6206
18.1438,15.7505
18.3109,15.9176
18.4464,16.1112
18.4464,16.1112
18.5463,16.3253
18.5463,16.3253
18.6075,16.5536
18.6075,16.5536
18.6281,16.7890
18.6281,16.7890
18.6075,17.0244
18.6075,17.0244
18.5463,17.2527
18.5463,17.2527
18.5463,17.2527
18.4722,17.4116
18.4464,17.4668
18.4464,17.4668
18.3381,17.6215
18.3245,17.6410
18.3109,17.6604
18.3109,17.6604
18.1438,17.8275
18.1438,17.8275
17.9582,17.9574
17.9146,18.0120
17.9074,18.0815
17.9389,18.1439
17.9582,18.1606
18.1438,18.2905
18.3109,18.4576
18.4464,18.6512
18.4464,18.6512
18.5463,18.8653
18.5463,18.8653
18.6075,19.0936
18.6075,19.0936
18.6281,19.3290
18.6281,19.3290
18.6075,19.5644
18.6075,19.5644
18.5463,19.7927
18.5463,19.7927
18.5463,19.7927
18.4722,19.9516
18.4464,20.0068
18.4464,20.0068
18.3381,20.1615
18.3109,20.2004
18.3109,20.2004
18.1890,20.3223
18.1555,20.3836
18.1605,20.4533
18.2023,20.5093
18.2333,20.5262
18.3647,20.5752
18.3647,20.5752
18.4799,20.6615
18.4799,20.6615
18.5662,20.7767
18.5662,20.7767
18.6165,20.9115
18.6223,20.9655
18.6229,20.9711
18.6229,20.9711
18.6229,22.7669
18.6229,22.7669
18.6165,22.8265
18.5662,22.9613
18.5662,22.9613
18.4799,23.0765
18.4799,23.0765
18.3647,23.1628
18.3647,23.1628
18.2333,23.2118
18.1774,23.2537
18.1530,23.3191
18.1678,23.3874
18.1890,23.4157
18.3109,23.5376
18.4464,23.7312
18.4464,23.7312
18.5463,23.9453
18.5463,23.9453
18.6075,24.1736
18.6075,24.1736
18.6281,24.4090
18.6281,24.4090
18.6075,24.6444
18.6075,24.6444
18.5463,24.8727
18.5463,24.8727
18.5463,24.8727
18.4464,25.0868
18.4464,25.0868
18.3109,25.2804
18.3109,25.2804
18.1438,25.4475
18.1438,25.4475
17.9582,25.5774
17.9146,25.6320
17.9074,25.7015
17.9389,25.7639
17.9582,25.7806
18.1438,25.9105
18.3109,26.0776
18.4464,26.2712
18.4464,26.2712
18.5463,26.4853
18.5463,26.4853
18.6075,26.7136
18.6075,26.7136
18.6281,26.9490
18.6281,26.9490
18.6075,27.1844
18.6075,27.1844
18.5463,27.4127
18.5463,27.4127
18.5463,27.4127
18.5331,27.4410
18.4464,27.6268
18.4464,27.6268
18.3109,27.8204
18.3109,27.8204
18.1438,27.9875
18.1438,27.9875
17.9582,28.1174
17.9146,28.1720
17.9074,28.2415
17.9389,28.3039
17.9582,28.3206
18.1438,28.4505
18.3109,28.6176
18.4464,28.8112
18.4464,28.8112
18.5463,29.0253
18.5463,29.0253
18.6075,29.2536
18.6075,29.2536
18.6281,29.4890
18.6281,29.4890
18.6075,29.7244
18.6075,29.7244
18.5463,29.9527
18.5463,29.9527
18.5463,29.9527
18.4464,30.1668
18.4464,30.1668
18.3109,30.3604
18.3109,30.3604
18.1438,30.5275
18.1438,30.5275
17.9582,30.6574
17.9146,30.7120
17.9074,30.7815
17.9389,30.8439
17.9582,30.8606
18.1438,30.9905
18.3109,31.1576
18.4464,31.3512
18.4464,31.3512
18.5463,31.5653
18.5463,31.5653
18.6075,31.7936
18.6075,31.7936
18.6281,32.0290
18.6281,32.0290
18.6075,32.2644
18.6075,32.2644
18.5463,32.4927
18.5463,32.4927
18.5463,32.4927
18.5208,32.5474
18.4464,32.7068
18.4464,32.7068
18.4254,32.7368
18.3109,32.9004
18.3109,32.9004
18.1890,33.0223
18.1555,33.0836
18.1605,33.1533
18.2023,33.2093
18.2333,33.2262
18.3647,33.2752
18.3647,33.2752
18.4799,33.3615
18.4799,33.3615
18.5662,33.4767
18.5662,33.4767
18.6165,33.6115
18.6229,33.6711
18.6229,33.6711
18.6229,33.6711
18.6229,35.4669
18.6229,35.4669
18.6165,35.5265
18.5662,35.6613
18.5662,35.6613
18.4799,35.7765
18.4799,35.7765
18.3647,35.8628
18.3647,35.8628
18.2333,35.9118
18.1774,35.9537
18.1530,36.0191
18.1678,36.0874
18.1890,36.1157
18.3109,36.2376
18.4464,36.4312
18.4464,36.4312
18.5463,36.6453
18.5463,36.6453
18.6075,36.8736
18.6075,36.8736
18.6281,37.1090
18.6281,37.1090
18.6075,37.3444
18.6075,37.3444
18.5463,37.5727
18.5463,37.5727
18.5463,37.5727
18.4531,37.7725
18.4464,37.7868
18.4464,37.7868
18.3109,37.9804
18.3109,37.9804
18.1438,38.1475
18.1438,38.1475
17.9582,38.2774
17.9146,38.3320
17.9074,38.4015
17.9389,38.4639
17.9582,38.4806
18.1438,38.6105
18.3109,38.7776
18.4464,38.9712
18.4464,38.9712
18.5463,39.1853
18.5463,39.1853
18.6075,39.4136
18.6075,39.4136
18.6281,39.6490
18.6281,39.6490
18.6075,39.8844
18.6075,39.8844
18.5463,40.1127
18.5463,40.1127
18.5463,40.1127
18.4464,40.3268
18.4464,40.3268
18.3109,40.5204
18.3109,40.5204
18.1438,40.6875
18.1438,40.6875
17.9582,40.8174
17.9146,40.8720
17.9074,40.9415
17.9389,41.0039
17.9582,41.0206
18.1438,41.1505
18.3109,41.3176
18.4464,41.5112
18.4464,41.5112
18.5463,41.7253
18.5463,41.7253
18.6075,41.9536
18.6075,41.9536
18.6281,42.1890
18.6281,42.1890
18.6075,42.4244
18.6075,42.4244
18.5463,42.6527
18.5463,42.6527
18.5463,42.6527
18.5057,42.7397
18.4464,42.8668
18.4464,42.8668
18.3109,43.0604
18.3109,43.0604
18.1438,43.2275
18.1438,43.2275
17.9582,43.3574
17.9146,43.4120
17.9074,43.4815
17.9389,43.5439
17.9582,43.5606
18.1438,43.6905
18.3109,43.8576
18.4464,44.0512
18.4464,44.0512
18.5463,44.2653
18.5463,44.2653
18.6075,44.4936
18.6075,44.4936
18.6281,44.7290
18.6281,44.7290
18.6075,44.9644
18.6075,44.9644
18.5463,45.1927
18.5463,45.1927
18.5463,45.1927
18.4862,45.3216
18.4464,45.4068
18.4464,45.4068
18.3694,45.5169
18.3109,45.6004
18.3109,45.6004
18.1890,45.7223
18.1555,45.7836
18.1605,45.8533
18.2023,45.9093
18.2333,45.9262
18.3647,45.9752
18.3647,45.9752
18.4799,46.0615
18.4799,46.0615
18.5662,46.1767
18.5662,46.1767
18.6165,46.3115
18.6194,46.3382
18.6229,46.3711
18.6229,46.3711
18.6229,46.9982
18.6426,47.0653
18.6954,47.1110
18.7645,47.1210
18.8281,47.0919
18.8346,47.0859
21.8222,44.0983
21.8222,44.0983
21.8222,44.0983
21.8293,44.0912
21.8293,44.0912
21.9686,43.9519
21.9686,43.9519
21.9686,43.9519
22.1325,43.8424
22.1325,43.8424
22.2051,43.8123
22.2612,43.7890
22.3146,43.7669
22.3146,43.7669
22.3146,43.7669
22.4112,43.7477
22.5079,43.7285
22.5079,43.7285
34.0916,43.7285
34.1587,43.7088
34.1793,43.6922
34.1810,43.6905
34.1810,43.6905
34.3666,43.5606
34.4102,43.5060
34.4174,43.4365
34.3859,43.3741
34.3666,43.3574
34.3301,43.3319
34.1810,43.2275
34.0139,43.0604
33.8784,42.8668
33.7785,42.6527
33.7173,42.4244
33.6967,42.1890
33.7173,41.9536
33.7785,41.7253
33.8784,41.5112
34.0139,41.3176
34.0139,41.3176
34.1810,41.1505
34.1810,41.1505
34.3666,41.0206
34.4102,40.9660
34.4174,40.8965
34.3859,40.8341
34.3666,40.8174
34.2590,40.7421
34.1810,40.6875
34.0139,40.5204
33.8784,40.3268
33.7785,40.1127
33.7173,39.8844
33.6967,39.6490
33.7173,39.4136
33.7785,39.1853
33.8784,38.9712
33.9638,38.8492
34.0139,38.7776
34.1810,38.6105
34.1810,38.6105
34.3666,38.4806
34.4102,38.4260
34.4174,38.3565
34.3859,38.2941
34.3666,38.2774
34.3261,38.2491
34.1810,38.1475
34.0139,37.9804
33.8784,37.7868
33.7785,37.5727
33.7173,37.3444
33.6967,37.1090
33.6981,37.0939
33.7173,36.8736
33.7173,36.8736
33.7785,36.6453
33.8784,36.4312
33.8998,36.4006
34.0139,36.2376
34.0291,36.2224
34.1358,36.1157
34.1693,36.0544
34.1643,35.9847
34.1225,35.9287
34.0915,35.9118
33.9601,35.8628
33.8449,35.7765
33.7586,35.6613
33.7083,35.5265
33.7019,35.4669
33.7019,33.6711
33.7083,33.6115
33.7089,33.6099
33.7586,33.4767
33.7586,33.4767
33.8449,33.3615
33.8449,33.3615
33.9601,33.2752
33.9601,33.2752
34.0915,33.2262
34.1474,33.1843
34.1718,33.1189
34.1570,33.0506
34.1358,33.0223
34.0139,32.9004
33.8784,32.7068
33.7785,32.4927
33.7173,32.2644
33.6967,32.0290
33.7173,31.7936
33.7785,31.5653
33.8784,31.3512
33.8994,31.3212
34.0139,31.1576
34.1810,30.9905
34.1810,30.9905
34.3666,30.8606
34.4102,30.8060
34.4174,30.7365
34.3859,30.6741
34.3666,30.6574
34.3444,30.6419
34.1810,30.5275
34.0139,30.3604
33.8784,30.1668
33.7785,29.9527
33.7173,29.7244
33.6967,29.4890
33.7173,29.2536
33.7785,29.0253
33.8784,28.8112
33.9345,28.7310
34.0139,28.6176
34.1810,28.4505
34.1810,28.4505
34.3666,28.3206
34.4102,28.2660
34.4174,28.1965
34.3859,28.1341
34.3666,28.1174
34.3444,28.1019
34.1810,27.9875
34.0139,27.8204
33.8784,27.6268
33.7785,27.4127
33.7173,27.1844
33.6967,26.9490
33.7173,26.7136
33.7785,26.4853
33.8784,26.2712
33.9182,26.2143
34.0139,26.0776
34.1810,25.9105
34.1810,25.9105
34.3666,25.7806
34.4102,25.7260
34.4174,25.6565
34.3859,25.5941
34.3666,25.5774
34.3444,25.5619
34.1810,25.4475
34.0139,25.2804
33.8784,25.0868
33.7785,24.8727
33.7173,24.6444
33.6967,24.4090
33.7173,24.1736
33.7785,23.9453
33.8784,23.7312
33.9804,23.5855
34.0139,23.5376
34.0555,23.4960
34.1358,23.4157
34.1693,23.3544
34.1643,23.2847
34.1225,23.2287
34.0915,23.2118
33.9601,23.1628
33.8449,23.0765
33.7586,22.9613
33.7083,22.8265
33.7019,22.7669
33.7019,20.9711
33.7083,20.9115
33.7138,20.8967
33.7586,20.7767
33.7586,20.7767
33.8449,20.6615
33.8449,20.6615
33.9601,20.5752
33.9601,20.5752
34.0915,20.5262
34.1474,20.4843
34.1718,20.4189
34.1570,20.3506
34.1358,20.3223
34.0139,20.2004
33.8784,20.0068
33.7785,19.7927
33.7173,19.5644
33.6967,19.3290
33.7173,19.0936
33.7785,18.8653
33.8784,18.6512
33.9025,18.6167
34.0139,18.4576
34.1810,18.2905
34.1810,18.2905
34.3666,18.1606
34.4102,18.1060
34.4174,18.0365
34.3859,17.9741
34.3666,17.9574
34.2345,17.8649
34.1810,17.8275
34.0139,17.6604
33.8784,17.4668
33.7785,17.2527
33.7173,17.0244
33.6967,16.7890
33.7173,16.5536
33.7785,16.3253
33.8784,16.1112
33.9182,16.0543
34.0139,15.9176
34.1810,15.7505
34.1810,15.7505
34.3666,15.6206
34.4102,15.5660
34.4174,15.4965
34.3859,15.4341
34.3666,15.4174
34.3444,15.4019
34.1810,15.2875
34.0139,15.1204
33.8784,14.9268
33.7785,14.7127
33.7173,14.4844
33.6967,14.2490
33.7173,14.0136
33.7785,13.7853
33.8784,13.5712
33.8797,13.5693
34.0139,13.3776
34.1810,13.2105
34.1810,13.2105
34.3666,13.0806
34.4102,13.0260
34.4174,12.9565
34.3859,12.8941
34.3666,12.8774
34.2774,12.8150
34.1810,12.7475
34.0139,12.5804
33.8784,12.3868
33.7785,12.1727
33.7173,11.9444
33.6967,11.7090
33.7173,11.4736
33.7785,11.2453
33.8784,11.0312
33.9134,10.9811
34.0139,10.8376
34.0733,10.7782
34.1358,10.7157
34.1693,10.6544
34.1643,10.5847
34.1225,10.5287
34.0915,10.5118
33.9601,10.4628
33.8449,10.3765
33.7586,10.2613
33.7083,10.1265
33.7019,10.0669
33.7019,8.2711
33.7083,8.2115
33.7087,8.2106
33.7586,8.0767
33.7586,8.0767
33.8449,7.9615
33.8449,7.9615
33.9601,7.8752
33.9601,7.8752
34.0915,7.8262
34.1474,7.7843
34.1718,7.7189
34.1570,7.6506
34.1358,7.6223
34.0139,7.5004
33.8784,7.3068
33.8514,7.2490
29.8427,7.2490
29.8427,7.2490
29.8236,7.4670
29.8236,7.4670
29.7670,7.6783
29.7670,7.6783
29.7670,7.6783
29.7481,7.7189
29.6745,7.8766
29.6698,7.8834
29.5490,8.0559
29.3943,8.2106
29.2150,8.3361
29.0167,8.4286
28.8054,8.4852
28.6225,8.5012
28.5874,8.5043
28.5874,8.5043
28.5874,8.5043
28.5591,8.5018
28.3694,8.4852
28.1581,8.4286
27.9598,8.3361
27.7805,8.2106
27.6258,8.0559
27.5003,7.8766
27.4078,7.6783
27.3512,7.4670
27.3321,7.2490
27.3321,7.2490
24.9927,7.2490
24.9927,7.2490
24.9736,7.4670
24.9736,7.4670
24.9170,7.6783
24.9170,7.6783
24.9170,7.6783
24.8981,7.7189
24.8245,7.8766
24.8198,7.8834
24.6990,8.0559
24.5443,8.2106
24.3650,8.3361
24.1667,8.4286
23.9554,8.4852
23.7725,8.5012
23.7374,8.5043
23.7374,8.5043
23.7374,8.5043
23.7091,8.5018
23.5194,8.4852
23.3081,8.4286
23.1098,8.3361
22.9305,8.2106
22.7758,8.0559
22.6503,7.8766
22.5578,7.6783
22.5012,7.4670
22.4821,7.2490
22.5012,7.0310
22.5578,6.8197
22.6503,6.6214
22.6503,6.6214
22.6503,6.6214
22.7758,6.4421
22.8243,6.3936
22.9305,6.2874
23.0684,6.1908
23.1098,6.1619
23.2089,6.1157
23.3081,6.0694
23.3081,6.0694
23.3081,6.0694
23.5194,6.0128
23.7374,5.9937
23.7374,5.9937
23.8827,6.0064
23.9554,6.0128
23.9554,6.0128
24.1667,6.0694
24.1667,6.0694
24.3650,6.1619
24.3650,6.1619
24.5443,6.2874
24.6990,6.4421
24.8245,6.6214
24.8245,6.6214
24.9170,6.8197
24.9170,6.8197
24.9736,7.0310
24.9736,7.0310
24.9927,7.2490
27.3321,7.2490
27.3512,7.0310
27.4078,6.8197
27.5003,6.6214
27.5003,6.6214
27.5003,6.6214
27.6258,6.4421
27.6743,6.3936
27.7805,6.2874
27.9184,6.1908
27.9598,6.1619
28.0589,6.1157
28.1581,6.0694
28.1581,6.0694
28.1581,6.0694
28.3694,6.0128
28.5874,5.9937
28.5874,5.9937
28.7327,6.0064
28.8054,6.0128
28.8054,6.0128
29.0167,6.0694
29.0167,6.0694
29.2150,6.1619
29.2150,6.1619
29.3943,6.2874
29.5490,6.4421
29.6745,6.6214
29.6745,6.6214
29.7670,6.8197
29.7670,6.8197
29.8236,7.0310
29.8236,7.0310
29.8427,7.2490
33.8514,7.2490
33.7785,7.0927
33.7173,6.8644
33.6967,6.6290
33.7173,6.3936
33.7785,6.1653
33.8784,5.9512
33.9479,5.8519
34.0139,5.7576
34.1810,5.5905
34.1810,5.5905
34.3666,5.4606
34.4102,5.4060
34.4174,5.3365
34.3859,5.2741
34.3666,5.2574
34.3125,5.2196
34.1810,5.1275
34.0139,4.9604
33.8784,4.7668
33.7785,4.5527
33.7173,4.3244
33.7081,4.2190
30.2927,4.2190
30.2927,4.2190
30.2735,4.4503
30.2735,4.4503
30.2166,4.6753
30.1233,4.8878
29.9964,5.0821
29.9964,5.0822
29.9964,5.0822
29.8392,5.2529
29.8392,5.2529
29.8392,5.2529
29.6560,5.3955
29.6560,5.3955
29.6560,5.3955
29.4519,5.5059
29.3379,5.5451
29.2324,5.5813
29.2324,5.5813
29.2324,5.5813
29.0034,5.6195
29.0034,5.6195
28.7714,5.6195
28.7714,5.6195
28.5424,5.5813
28.3229,5.5059
28.1188,5.3955
28.1175,5.3945
27.9486,5.2630
27.9356,5.2529
27.7784,5.0822
27.6515,4.8878
27.5582,4.6753
27.5013,4.4503
27.5013,4.4503
27.4821,4.2190
27.4821,4.2190
24.8427,4.2190
24.8427,4.2190
24.8235,4.4503
24.8235,4.4503
24.7666,4.6753
24.6733,4.8878
24.5464,5.0821
24.5464,5.0822
24.5464,5.0822
24.3892,5.2529
24.3892,5.2529
24.3892,5.2529
24.2060,5.3955
24.2060,5.3955
24.2060,5.3955
24.0019,5.5059
23.8879,5.5451
23.7824,5.5813
23.7824,5.5813
23.7824,5.5813
23.5534,5.6195
23.5534,5.6195
23.3214,5.6195
23.3214,5.6195
23.0924,5.5813
22.8729,5.5059
22.6688,5.3955
22.6675,5.3945
22.4986,5.2630
22.4856,5.2529
22.3284,5.0822
22.2015,4.8878
22.1082,4.6753
22.0513,4.4503
22.0513,4.4503
22.0321,4.2190
22.0321,4.2190
22.0513,3.9877
22.0513,3.9877
22.1082,3.7627
22.2015,3.5502
22.3284,3.3559
22.3284,3.3558
22.3284,3.3558
22.4856,3.1851
22.4856,3.1851
22.4856,3.1851
22.6688,3.0425
22.6688,3.0425
22.8729,2.9321
22.8729,2.9321
23.0924,2.8567
23.2641,2.8280
23.3214,2.8185
23.5534,2.8185
23.5992,2.8261
23.7824,2.8567
24.0019,2.9321
24.0019,2.9321
24.2060,3.0425
24.2060,3.0425
24.3892,3.1851
24.3892,3.1851
24.5464,3.3559
24.6733,3.5502
24.7666,3.7627
24.8235,3.9877
24.8235,3.9877
24.8427,4.2190
27.4821,4.2190
27.5013,3.9877
27.5013,3.9877
27.5582,3.7627
27.6515,3.5502
27.7784,3.3559
27.7784,3.3558
27.7784,3.3558
27.9356,3.1851
27.9356,3.1851
27.9356,3.1851
28.1188,3.0425
28.1188,3.0425
28.3229,2.9321
28.3229,2.9321
28.5424,2.8567
28.7141,2.8280
28.7714,2.8185
29.0034,2.8185
29.0492,2.8261
29.2324,2.8567
29.4519,2.9321
29.4519,2.9321
29.6560,3.0425
29.6560,3.0425
29.8392,3.1851
29.8392,3.1851
29.9964,3.3559
30.1233,3.5502
30.2166,3.7627
30.2735,3.9877
30.2735,3.9877
30.2927,4.2190
33.7081,4.2190
33.6967,4.0890
33.7173,3.8536
33.7785,3.6253
33.8784,3.4112
33.9042,3.3743
34.0139,3.2176
34.1810,3.0505
34.1810,3.0505
34.1924,3.0425
34.2199,3.0233
34.3746,2.9150
34.3746,2.9150
34.4876,2.8623
34.5887,2.8151
34.5887,2.8151
34.5887,2.8151
34.8170,2.7539
34.8170,2.7539
35.0524,2.7333
35.0524,2.7333
35.2878,2.7539
35.2878,2.7539
35.5161,2.8151
35.5161,2.8151
35.7302,2.9150
35.7302,2.9150
35.9238,3.0505
35.9255,3.0522
35.9264,3.0527
35.9280,3.0540
35.9282,3.0537
35.9868,3.0857
36.0132,3.0885
40.5248,3.0885
40.5919,3.0688
40.5959,3.0661
40.6136,3.0537
40.7497,2.9584
40.8025,2.9338
40.9559,2.8623
40.9559,2.8623
41.1757,2.8034
41.1757,2.8034
41.1757,2.8034
41.1757,2.8034
41.1757,2.8034
41.4024,2.7835
41.4024,2.7835
41.6291,2.8034
41.6291,2.8034
41.8489,2.8623
41.8489,2.8623
42.0551,2.9584
42.0551,2.9584
42.2415,3.0890
42.4024,3.2499
42.5330,3.4363
42.5330,3.4363
42.6291,3.6425
42.6291,3.6425
42.6880,3.8623
42.6880,3.8623
42.7079,4.0890
42.7079,4.0890
42.6880,4.3157
42.6880,4.3157
42.6291,4.5355
42.6291,4.5355
42.5330,4.7417
42.5330,4.7417
42.4024,4.9281
42.2415,5.0890
42.2415,5.0890
42.0551,5.2196
41.8489,5.3157
41.6291,5.3746
41.4672,5.3888
41.4024,5.3945
41.4024,5.3945
41.4024,5.3945
41.3457,5.3895
41.1757,5.3746
40.9559,5.3157
40.7497,5.2196
40.5959,5.1119
40.5297,5.0896
40.5248,5.0895
36.0132,5.0895
35.9461,5.1092
35.9255,5.1258
35.9238,5.1275
35.9238,5.1275
35.7382,5.2574
35.6946,5.3120
35.6874,5.3815
35.7189,5.4439
35.7382,5.4606
35.9238,5.5905
35.9255,5.5922
35.9264,5.5927
35.9280,5.5940
35.9282,5.5937
35.9868,5.6257
36.0132,5.6285
37.9449,5.6285
38.1382,5.6669
38.1382,5.6669
38.1382,5.6669
38.1382,5.6669
38.2137,5.6982
38.2137,5.6982
38.3203,5.7424
38.3203,5.7424
38.4361,5.8197
38.4361,5.8197
38.4842,5.8519
38.4842,5.8519
40.7645,8.1322
40.8258,8.1657
40.8522,8.1685
41.0328,8.1685
41.0999,8.1488
41.1039,8.1461
41.1238,8.1322
41.2577,8.0384
41.2577,8.0384
41.4639,7.9423
41.4639,7.9423
41.6837,7.8834
41.6837,7.8834
41.6837,7.8834
41.6837,7.8834
41.6837,7.8834
41.9104,7.8635
41.9104,7.8635
42.1371,7.8834
42.1371,7.8834
42.3569,7.9423
42.3569,7.9423
42.5631,8.0384
42.5631,8.0384
42.7495,8.1690
42.9104,8.3299
43.0410,8.5163
43.0410,8.5163
43.1371,8.7225
43.1371,8.7225
43.1960,8.9423
43.1960,8.9423
43.2159,9.1690
43.2159,9.1690
43.1960,9.3957
43.1960,9.3957
43.1371,9.6155
43.1371,9.6155
43.0410,9.8217
43.0410,9.8217
42.9104,10.0081
42.7495,10.1690
42.7484,10.1699
42.5631,10.2996
42.3569,10.3957
42.1371,10.4546
41.9807,10.4683
41.9104,10.4745
41.9104,10.4745
41.9104,10.4745
41.8537,10.4695
41.6837,10.4546
41.4639,10.3957
41.2577,10.2996
41.1039,10.1919
41.0377,10.1696
41.0328,10.1695
40.2879,10.1695
40.1912,10.1503
40.1429,10.1407
40.0946,10.1311
40.0412,10.1090
39.9125,10.0556
39.7486,9.9461
39.6093,9.8068
39.6093,9.8068
39.5991,9.7966
39.5991,9.7966
37.4683,7.6658
37.4070,7.6323
37.3806,7.6295
36.1733,7.6295
36.1062,7.6492
36.0605,7.7020
36.0505,7.7711
36.0795,7.8347
36.1299,7.8697
36.1447,7.8752
36.1447,7.8752
36.2599,7.9615
36.2599,7.9615
36.3462,8.0767
36.3462,8.0767
36.3965,8.2115
36.4029,8.2711
36.4029,8.2711
36.4029,8.2711
36.4029,10.0669
36.4029,10.0669
36.3965,10.1265
36.3462,10.2613
36.3462,10.2613
36.2599,10.3765
36.2599,10.3765
36.1447,10.4628
36.1447,10.4628
36.1299,10.4683
36.0740,10.5102
36.0496,10.5757
36.0644,10.6439
36.1138,10.6933
36.1733,10.7085
38.9609,10.7085
39.1542,10.7469
39.1542,10.7469
39.1542,10.7469
39.1542,10.7469
39.2297,10.7782
39.2297,10.7782
39.3363,10.8224
39.3363,10.8224
39.3558,10.8354
39.3754,10.8485
39.3754,10.8485
39.5002,10.9319
39.5002,10.9319
43.5224,14.9541
43.5838,14.9876
43.5993,14.9900
43.6611,14.9954
43.8809,15.0543
43.8809,15.0543
44.0871,15.1504
44.0871,15.1504
44.2735,15.2810
44.4344,15.4419
44.5650,15.6283
44.5650,15.6283
44.6611,15.8345
44.6611,15.8345
44.7200,16.0543
44.7200,16.0543
44.7399,16.2810
49.2919,16.2810
49.2919,10.8485
49.2989,10.8135
49.2989,10.8135
49.3240,10.6870
49.3303,10.6552
49.3865,10.5195
49.4058,10.4731
49.4574,10.3957
49.5153,10.3092
49.5634,10.2611
49.6546,10.1699
49.6546,10.1699
50.7435,9.0810
50.7770,9.0196
50.7794,9.0041
50.7848,8.9423
50.8437,8.7225
50.9398,8.5163
51.0704,8.3299
51.0704,8.3299
51.2313,8.1690
51.4177,8.0384
51.4177,8.0384
51.6239,7.9423
51.6239,7.9423
51.8437,7.8834
51.8437,7.8834
51.8437,7.8834
51.8437,7.8834
51.8437,7.8834
52.0704,7.8635
52.0704,7.8635
52.2971,7.8834
52.2971,7.8834
52.5169,7.9423
52.5169,7.9423
52.7231,8.0384
52.7231,8.0384
52.9095,8.1690
53.0704,8.3299
53.2010,8.5163
53.2010,8.5163
53.2971,8.7225
53.2971,8.7225
53.3560,8.9423
53.3560,8.9423
53.3759,9.1690
53.3759,9.1690
53.3560,9.3957
53.3560,9.3957
53.2971,9.6155
53.2971,9.6155
53.2010,9.8217
53.2010,9.8217
53.0704,10.0081
52.9095,10.1690
52.9084,10.1699
52.7231,10.2996
52.5169,10.3957
52.2971,10.4546
52.2353,10.4600
52.1702,10.4855
52.1584,10.4959
51.3292,11.3251
51.2957,11.3864
51.2929,11.4128
51.2929,16.7905
51.3126,16.8575
51.3654,16.9033
51.4169,16.9145
52.1353,16.9145
52.1353,16.9145
52.1949,16.9209
52.3297,16.9712
52.3297,16.9712
52.4449,17.0575
52.4449,17.0575
52.5312,17.1727
52.5312,17.1727
52.5815,17.3075
52.5879,17.3671
52.5879,17.3671
52.5879,17.7242
52.6076,17.7913
52.6242,17.8119
53.6878,18.8755
54.7402,19.9279
54.7402,19.9279
54.8099,19.9975
54.8795,20.0672
54.9890,20.2311
54.9890,20.2311
55.0645,20.4132
55.0645,20.4132
55.1029,20.6065
55.1029,20.6065
55.1029,36.4455
55.1029,36.4455
55.1029,36.4455
55.0645,36.6388
55.0645,36.6388
54.9890,36.8209
54.9890,36.8209
54.8795,36.9848
54.8795,36.9848
54.8795,36.9848
54.7402,37.1241
54.7402,37.1241
54.7331,37.1312
54.7331,37.1312
54.7331,37.1312
53.6152,38.2491
53.5817,38.3104
53.5789,38.3368
53.5789,40.4021
53.5986,40.4691
53.6514,40.5149
53.7205,40.5248
53.7841,40.4958
53.8002,40.4790
53.8007,40.4783
53.9247,40.3543
53.9247,40.3543
54.0741,40.2622
54.2406,40.2070
54.2406,40.2070
54.3434,40.1965
55.8934,40.1965
55.8934,40.1965
55.9962,40.2070
55.9962,40.2070
56.1627,40.2622
56.1627,40.2622
56.3121,40.3543
56.4361,40.4783
56.5282,40.6277
56.5282,40.6277
56.5480,40.6875
56.5834,40.7942
56.5834,40.7942
56.5834,40.7942
56.5914,40.8729
56.6178,40.9376
56.6750,40.9778
56.7448,40.9806
56.8025,40.9480
60.4316,37.3189
60.4651,37.2576
60.4679,37.2312
60.4679,28.7310
59.9533,28.7310
59.9533,28.7310
58.9901,28.7310
58.9945,28.7354
59.0471,28.8266
59.0744,28.9283
59.0744,29.0337
59.0471,29.1354
58.9945,29.2266
58.9901,29.2310
59.9533,29.2310
59.9007,29.4273
59.9007,29.4273
59.8045,29.6335
59.6741,29.8198
59.5132,29.9807
59.3269,30.1111
59.1207,30.2073
59.1207,30.2073
58.9244,30.2599
58.9244,30.2599
58.9244,29.2967
58.9200,29.3011
58.8288,29.3537
58.7271,29.3810
58.6217,29.3810
58.5200,29.3537
58.4288,29.3011
58.4244,29.2967
58.4244,30.2599
58.2281,30.2073
58.2281,30.2073
58.0219,30.1111
57.8356,29.9807
57.6747,29.8198
57.5443,29.6335
57.4481,29.4273
57.4481,29.4273
57.3955,29.2310
58.3587,29.2310
58.3543,29.2266
58.3017,29.1354
58.2744,29.0337
58.2744,28.9283
58.3017,28.8266
58.3543,28.7354
58.3587,28.7310
57.3955,28.7310
57.3955,28.7310
57.4481,28.5347
57.4481,28.5347
57.5443,28.3285
57.6747,28.1422
57.8356,27.9813
58.0219,27.8509
58.2281,27.7547
58.4244,27.7021
58.4244,28.6653
58.4288,28.6609
58.5200,28.6083
58.6217,28.5810
58.7271,28.5810
58.8288,28.6083
58.9200,28.6609
58.9244,28.6653
58.9244,27.7021
59.1207,27.7547
59.3269,27.8509
59.5132,27.9813
59.6741,28.1422
59.8045,28.3285
59.9007,28.5347
59.9007,28.5347
59.9533,28.7310
60.4679,28.7310
60.4679,15.0748
60.4482,15.0077
60.4316,14.9871
60.1406,14.6961
60.0793,14.6626
60.0096,14.6676
59.9536,14.7095
59.9292,14.7749
59.9289,14.7838
59.9289,18.4618
59.9331,18.4939
59.9600,18.5943
59.9600,18.5943
59.9799,18.8210
59.9799,18.8210
59.9600,19.0477
59.9600,19.0477
59.9011,19.2675
59.9011,19.2675
59.8050,19.4737
59.8050,19.4737
59.6744,19.6601
59.5135,19.8210
59.5135,19.8210
59.3271,19.9516
59.1209,20.0477
58.9011,20.1066
58.7392,20.1208
58.6744,20.1265
58.6744,20.1265
58.6744,20.1265
58.6177,20.1215
58.4477,20.1066
58.2279,20.0477
58.0217,19.9516
57.8353,19.8210
57.6744,19.6601
57.5438,19.4737
57.4477,19.2675
57.3888,19.0477
57.3689,18.8210
57.3888,18.5943
57.4477,18.3745
57.5438,18.1683
57.6744,17.9819
57.6744,17.9819
57.8353,17.8210
57.8750,17.7931
57.9186,17.7385
57.9279,17.6915
57.9279,14.6340
57.9084,14.5676
57.9084,13.7049
57.9060,13.6807
57.9029,13.6650
57.9029,13.6248
57.8887,13.6391
57.8031,13.6884
57.7078,13.7140
57.6090,13.7140
57.5137,13.6884
57.4281,13.6391
57.4084,13.6193
57.4084,14.5594
57.3594,14.5496
57.3594,14.5496
57.1729,14.4723
57.1729,14.4723
57.0050,14.3602
57.0050,14.3602
56.8622,14.2174
56.8622,14.2174
56.7501,14.0495
56.7501,14.0495
56.6728,13.8630
56.6728,13.8630
56.6334,13.6650
56.6334,13.6650
56.6334,13.5890
57.3781,13.5890
57.3583,13.5693
57.3090,13.4837
57.2834,13.3884
57.2834,13.2896
57.3090,13.1943
57.3583,13.1087
57.3781,13.0890
56.6334,13.0890
56.6334,13.0130
56.6334,13.0130
56.6728,12.8150
56.6728,12.8150
56.7501,12.6285
56.7501,12.6285
56.8622,12.4606
56.8622,12.4606
57.0050,12.3178
57.0050,12.3178
57.1729,12.2057
57.1729,12.2057
57.3594,12.1284
57.3594,12.1284
57.4084,12.1186
57.4084,13.0587
57.4281,13.0389
57.5137,12.9896
57.6090,12.9640
57.7078,12.9640
57.8031,12.9896
57.8887,13.0389
57.9029,13.0532
57.9029,13.0130
57.9029,13.0130
57.9060,12.9973
57.9084,12.9731
57.9084,12.1019
57.9219,12.0821
57.9279,12.0440
57.9279,11.9208
57.9082,11.8537
57.8916,11.8331
51.4744,5.4159
51.4130,5.3824
51.3975,5.3800
51.3357,5.3746
51.1159,5.3157
50.9097,5.2196
50.7233,5.0890
50.5624,4.9281
50.4318,4.7417
50.3357,4.5355
50.2768,4.3157
50.2569,4.0890
50.2768,3.8623
50.3357,3.6425
50.4318,3.4363
50.5624,3.2499
50.5624,3.2499
50.7233,3.0890
50.9097,2.9584
50.9097,2.9584
51.1159,2.8623
51.1159,2.8623
51.3357,2.8034
51.3357,2.8034
51.3357,2.8034
51.3357,2.8034
51.3357,2.8034
51.5624,2.7835
51.5624,2.7835
51.7891,2.8034
51.7891,2.8034
52.0089,2.8623
52.0089,2.8623
52.2151,2.9584
52.2151,2.9584
52.4015,3.0890
52.5624,3.2499
52.6930,3.4363
52.6930,3.4363
52.7891,3.6425
52.7891,3.6425
52.8480,3.8623
52.8480,3.8623
52.8534,3.9241
52.8789,3.9892
52.8893,4.0010
56.3553,7.4670
59.5662,10.6779
59.5662,10.6779
59.6036,10.7153
59.7055,10.8172
59.8150,10.9811
59.8150,10.9811
59.8904,11.1632
59.8905,11.1632
59.9289,11.3565
59.9289,11.9645
59.9486,12.0315
60.0014,12.0773
60.0529,12.0885
60.7713,12.0885
60.7713,12.0885
60.8309,12.0949
60.9657,12.1452
60.9657,12.1452
61.0809,12.2315
61.0809,12.2315
61.1672,12.3467
61.1672,12.3467
61.2175,12.4815
61.2239,12.5411
61.2239,12.5411
61.2239,12.8982
61.2436,12.9653
61.2602,12.9859
62.1062,13.8319
62.1062,13.8319
62.1565,13.8822
62.2455,13.9712
62.3550,14.1351
62.3550,14.1351
62.3879,14.2145
62.4238,14.3010
62.4238,14.3011
62.4305,14.3172
62.4305,14.3172
62.4689,14.5105
63.7619,14.5105
63.7619,4.4757
61.5409,4.4757
61.5409,4.7183
61.5092,4.9588
61.4465,5.1931
61.3680,5.3824
61.3536,5.4172
61.2323,5.6273
61.2323,5.6273
61.2323,5.6273
61.0847,5.8197
61.0847,5.8197
60.9131,5.9913
60.9131,5.9913
60.7207,6.1389
60.5106,6.2602
60.2865,6.3531
60.0522,6.4158
59.8718,6.4396
59.8117,6.4475
59.8117,6.4475
59.5691,6.4475
59.5210,6.4412
59.3286,6.4158
59.0943,6.3531
58.8702,6.2602
58.6601,6.1389
58.4677,5.9913
58.2961,5.8197
58.1485,5.6273
58.0272,5.4172
57.9343,5.1931
57.8716,4.9588
57.8399,4.7183
57.8399,4.4757
57.8716,4.2352
57.9343,4.0009
58.0272,3.7768
58.1485,3.5667
58.2486,3.4363
58.2961,3.3743
58.2961,3.3743
58.4677,3.2027
58.4677,3.2027
58.6601,3.0551
58.6601,3.0551
58.6601,3.0551
58.8702,2.9338
58.9156,2.9150
59.0943,2.8409
59.3286,2.7782
59.5691,2.7465
59.5691,2.7465
59.8117,2.7465
59.8117,2.7465
60.0522,2.7782
60.2865,2.8409
60.5106,2.9338
60.5106,2.9338
60.6925,3.0388
60.7128,3.0505
60.7207,3.0551
60.9131,3.2027
60.9131,3.2027
61.0847,3.3743
61.0847,3.3743
61.2323,3.5667
61.3536,3.7768
61.3536,3.7768
61.4465,4.0009
61.5092,4.2352
61.5409,4.4757
63.7619,4.4757
63.7619,0.6495
63.7422,0.5825
63.6894,0.5367
63.6379,0.5255
0.6249,0.5255
Z" /> 
</g>
<g style="fill:#FFFFFF; fill-opacity:1.0000; stroke:none;">
<circle cx="44.9584" cy="34.8230" r="0.3750" /> 
</g>
<g style="fill:#FFFFFF; fill-opacity:1.0000; stroke:none;">
<circle cx="43.6884" cy="34.8230" r="0.3750" /> 
</g>
<g style="fill:#FFFFFF; fill-opacity:1.0000; stroke:none;">
<circle cx="42.4184" cy="34.8230" r="0.3750" /> 
</g>
<g style="fill:#FFFFFF; fill-opacity:1.0000; stroke:none;">
<circle cx="8.0884" cy="13.9660" r="0.5000" /> 
</g>
<g style="fill:#FFFFFF; fill-opacity:1.0000; stroke:none;">
<circle cx="3.0884" cy="13.9660" r="0.5000" /> 
</g>
<g style="fill:#FFFFFF; fill-opacity:1.0000; stroke:none;">
<circle cx="21.8444" cy="60.9850" r="0.4750" /> 
</g>
<g style="fill:#FFFFFF; fill-opacity:1.0000; stroke:none;">
<circle cx="24.3444" cy="60.9850" r="0.4750" /> 
</g>
<g style="fill:#FFFFFF; fill-opacity:1.0000; stroke:none;">
<circle cx="26.8444" cy="60.9850" r="0.4750" /> 
</g>
<g style="fill:#FFFFFF; fill-opacity:1.0000; stroke:none;">
<circle cx="29.3444" cy="60.9850" r="0.4750" /> 
</g>
<g style="fill:#FFFFFF; fill-opacity:1.0000; stroke:none;">
<circle cx="6.9884" cy="34.5290" r="0.5000" /> 
</g>
<g style="fill:#FFFFFF; fill-opacity:1.0000; stroke:none;">
<circle cx="6.9884" cy="32.0290" r="0.5000" /> 
</g>
<g style="fill:#FFFFFF; fill-opacity:1.0000; stroke:none;">
<circle cx="43.6884" cy="39.9030" r="0.4000" /> 
</g>
<g style="fill:#FFFFFF; fill-opacity:1.0000; stroke:none;">
<circle cx="43.6884" cy="50.0630" r="0.4000" /> 
</g>
<g style="fill:#FFFFFF; fill-opacity:1.0000; stroke:none;">
<circle cx="59.6904" cy="4.5970" r="1.6000" /> 
</g>
<g style="fill:#FFFFFF; fill-opacity:1.0000; stroke:none;">
<circle cx="28.8874" cy="4.2190" r="0.9000" /> 
</g>
<g style="fill:#FFFFFF; fill-opacity:1.0000; stroke:none;">
<circle cx="28.5874" cy="7.2490" r="0.7500" /> 
</g>
<g style="fill:#FFFFFF; fill-opacity:1.0000; stroke:none;">
<circle cx="23.7374" cy="7.2490" r="0.7500" /> 
</g>
<g style="fill:#FFFFFF; fill-opacity:1.0000; stroke:none;">
<circle cx="23.4374" cy="4.2190" r="0.9000" /> 
</g>
<g style="fill:#FFFFFF; fill-opacity:1.0000; stroke:none;">
<circle cx="35.0524" cy="4.0890" r="0.5100" /> 
</g>
<g style="fill:#FFFFFF; fill-opacity:1.0000; stroke:none;">
<circle cx="35.0524" cy="6.6290" r="0.5100" /> 
</g>
<g style="fill:#FFFFFF; fill-opacity:1.0000; stroke:none;">
<circle cx="35.0524" cy="9.1690" r="0.5100" /> 
</g>
<g style="fill:#FFFFFF; fill-opacity:1.0000; stroke:none;">
<circle cx="35.0524" cy="11.7090" r="0.5100" /> 
</g>
<g style="fill:#FFFFFF; fill-opacity:1.0000; stroke:none;">
<circle cx="35.0524" cy="14.2490" r="0.5100" /> 
</g>
<g style="fill:#FFFFFF; fill-opacity:1.0000; stroke:none;">
<circle cx="35.0524" cy="16.7890" r="0.5100" /> 
</g>
<g style="fill:#FFFFFF; fill-opacity:1.0000; stroke:none;">
<circle cx="35.0524" cy="19.3290" r="0.5100" /> 
</g>
<g style="fill:#FFFFFF; fill-opacity:1.0000; stroke:none;">
<circle cx="35.0524" cy="21.8690" r="0.5100" /> 
</g>
<g style="fill:#FFFFFF; fill-opacity:1.0000; stroke:none;">
<circle cx="35.0524" cy="24.4090" r="0.5100" /> 
</g>
<g style="fill:#FFFFFF; fill-opacity:1.0000; stroke:none;">
<circle cx="35.0524" cy="26.9490" r="0.5100" /> 
</g>
<g style="fill:#FFFFFF; fill-opacity:1.0000; stroke:none;">
<circle cx="35.0524" cy="29.4890" r="0.5100" /> 
</g>
<g style="fill:#FFFFFF; fill-opacity:1.0000; stroke:none;">
<circle cx="35.0524" cy="32.0290" r="0.5100" /> 
</g>
<g style="fill:#FFFFFF; fill-opacity:1.0000; stroke:none;">
<circle cx="35.0524" cy="34.5690" r="0.5100" /> 
</g>
<g style="fill:#FFFFFF; fill-opacity:1.0000; stroke:none;">
<circle cx="35.0524" cy="37.1090" r="0.5100" /> 
</g>
<g style="fill:#FFFFFF; fill-opacity:1.0000; stroke:none;">
<circle cx="35.0524" cy="39.6490" r="0.5100" /> 
</g>
<g style="fill:#FFFFFF; fill-opacity:1.0000; stroke:none;">
<circle cx="35.0524" cy="42.1890" r="0.5100" /> 
</g>
<g style="fill:#FFFFFF; fill-opacity:1.0000; stroke:none;">
<circle cx="35.0524" cy="44.7290" r="0.5100" /> 
</g>
<g style="fill:#FFFFFF; fill-opacity:1.0000; stroke:none;">
<circle cx="35.0524" cy="47.2690" r="0.5100" /> 
</g>
<g style="fill:#FFFFFF; fill-opacity:1.0000; stroke:none;">
<circle cx="35.0524" cy="49.8090" r="0.5100" /> 
</g>
<g style="fill:#FFFFFF; fill-opacity:1.0000; stroke:none;">
<circle cx="35.0524" cy="52.3490" r="0.5100" /> 
</g>
<g style="fill:#FFFFFF; fill-opacity:1.0000; stroke:none;">
<circle cx="17.2724" cy="52.3490" r="0.5100" /> 
</g>
<g style="fill:#FFFFFF; fill-opacity:1.0000; stroke:none;">
<circle cx="17.2724" cy="49.8090" r="0.5100" /> 
</g>
<g style="fill:#FFFFFF; fill-opacity:1.0000; stroke:none;">
<circle cx="17.2724" cy="47.2690" r="0.5100" /> 
</g>
<g style="fill:#FFFFFF; fill-opacity:1.0000; stroke:none;">
<circle cx="17.2724" cy="44.7290" r="0.5100" /> 
</g>
<g style="fill:#FFFFFF; fill-opacity:1.0000; stroke:none;">
<circle cx="17.2724" cy="42.1890" r="0.5100" /> 
</g>
<g style="fill:#FFFFFF; fill-opacity:1.0000; stroke:none;">
<circle cx="17.2724" cy="39.6490" r="0.5100" /> 
</g>
<g style="fill:#FFFFFF; fill-opacity:1.0000; stroke:none;">
<circle cx="17.2724" cy="37.1090" r="0.5100" /> 
</g>
<g style="fill:#FFFFFF; fill-opacity:1.0000; stroke:none;">
<circle cx="17.2724" cy="34.5690" r="0.5100" /> 
</g>
<g style="fill:#FFFFFF; fill-opacity:1.0000; stroke:none;">
<circle cx="17.2724" cy="32.0290" r="0.5100" /> 
</g>
<g style="fill:#FFFFFF; fill-opacity:1.0000; stroke:none;">
<circle cx="17.2724" cy="29.4890" r="0.5100" /> 
</g>
<g style="fill:#FFFFFF; fill-opacity:1.0000; stroke:none;">
<circle cx="17.2724" cy="26.9490" r="0.5100" /> 
</g>
<g style="fill:#FFFFFF; fill-opacity:1.0000; stroke:none;">
<circle cx="17.2724" cy="24.4090" r="0.5100" /> 
</g>
<g style="fill:#FFFFFF; fill-opacity:1.0000; stroke:none;">
<circle cx="17.2724" cy="21.8690" r="0.5100" /> 
</g>
<g style="fill:#FFFFFF; fill-opacity:1.0000; stroke:none;">
<circle cx="17.2724" cy="19.3290" r="0.5100" /> 
</g>
<g style="fill:#FFFFFF; fill-opacity:1.0000; stroke:none;">
<circle cx="17.2724" cy="16.7890" r="0.5100" /> 
</g>
<g style="fill:#FFFFFF; fill-opacity:1.0000; stroke:none;">
<circle cx="17.2724" cy="14.2490" r="0.5100" /> 
</g>
<g style="fill:#FFFFFF; fill-opacity:1.0000; stroke:none;">
<circle cx="17.2724" cy="11.7090" r="0.5100" /> 
</g>
<g style="fill:#FFFFFF; fill-opacity:1.0000; stroke:none;">
<circle cx="17.2724" cy="9.1690" r="0.5100" /> 
</g>
<g style="fill:#FFFFFF; fill-opacity:1.0000; stroke:none;">
<circle cx="17.2724" cy="6.6290" r="0.5100" /> 
</g>
<g style="fill:#FFFFFF; fill-opacity:1.0000; stroke:none;">
<circle cx="17.2724" cy="4.0890" r="0.5100" /> 
</g>
<g style="fill:#FFFFFF; fill-opacity:1.0000; stroke:none;">
<circle cx="28.7024" cy="52.1190" r="0.5100" /> 
</g>
<g style="fill:#FFFFFF; fill-opacity:1.0000; stroke:none;">
<circle cx="26.1624" cy="52.1190" r="0.5100" /> 
</g>
<g style="fill:#FFFFFF; fill-opacity:1.0000; stroke:none;">
<circle cx="23.6224" cy="52.1190" r="0.5100" /> 
</g>
<g style="fill:#FFFFFF; fill-opacity:1.0000; stroke:none;">
<circle cx="5.3344" cy="58.9530" r="1.6000" /> 
</g>
<g style="fill:#FFFFFF; fill-opacity:1.0000; stroke:none;">
<circle cx="58.6744" cy="18.8210" r="0.4000" /> 
</g>
<g style="fill:#FFFFFF; fill-opacity:1.0000; stroke:none;">
<circle cx="58.6744" cy="28.9810" r="0.4000" /> 
</g>
<g style="fill:#FFFFFF; fill-opacity:1.0000; stroke:none;">
<circle cx="51.5624" cy="4.0890" r="0.4000" /> 
</g>
<g style="fill:#FFFFFF; fill-opacity:1.0000; stroke:none;">
<circle cx="41.4024" cy="4.0890" r="0.4000" /> 
</g>
<g style="fill:#FFFFFF; fill-opacity:1.0000; stroke:none;">
<circle cx="43.4344" cy="26.4410" r="0.4000" /> 
</g>
<g style="fill:#FFFFFF; fill-opacity:1.0000; stroke:none;">
<circle cx="43.4344" cy="16.2810" r="0.4000" /> 
</g>
<g style="fill:#FFFFFF; fill-opacity:1.0000; stroke:none;">
<circle cx="50.2924" cy="23.1390" r="0.4000" /> 
</g>
<g style="fill:#FFFFFF; fill-opacity:1.0000; stroke:none;">
<circle cx="50.2924" cy="33.2990" r="0.4000" /> 
</g>
<g style="fill:#FFFFFF; fill-opacity:1.0000; stroke:none;">
<circle cx="51.5624" cy="18.1650" r="0.3750" /> 
</g>
<g style="fill:#FFFFFF; fill-opacity:1.0000; stroke:none;">
<circle cx="50.2924" cy="18.1650" r="0.3750" /> 
</g>
<g style="fill:#FFFFFF; fill-opacity:1.0000; stroke:none;">
<circle cx="49.0224" cy="18.1650" r="0.3750" /> 
</g>
<g style="fill:#FFFFFF; fill-opacity:1.0000; stroke:none;">
<circle cx="5.3344" cy="4.5970" r="1.6000" /> 
</g>
<g style="fill:#FFFFFF; fill-opacity:1.0000; stroke:none;">
<circle cx="55.1184" cy="41.5470" r="0.4750" /> 
</g>
<g style="fill:#FFFFFF; fill-opacity:1.0000; stroke:none;">
<circle cx="55.1184" cy="44.0470" r="0.4750" /> 
</g>
<g style="fill:#FFFFFF; fill-opacity:1.0000; stroke:none;">
<circle cx="55.1184" cy="46.5470" r="0.4750" /> 
</g>
<g style="fill:#FFFFFF; fill-opacity:1.0000; stroke:none;">
<circle cx="55.1184" cy="49.0470" r="0.4750" /> 
</g>
<g style="fill:#FFFFFF; fill-opacity:1.0000; stroke:none;">
<circle cx="60.1984" cy="13.3390" r="0.3750" /> 
</g>
<g style="fill:#FFFFFF; fill-opacity:1.0000; stroke:none;">
<circle cx="58.9284" cy="13.3390" r="0.3750" /> 
</g>
<g style="fill:#FFFFFF; fill-opacity:1.0000; stroke:none;">
<circle cx="57.6584" cy="13.3390" r="0.3750" /> 
</g>
<g style="fill:#FFFFFF; fill-opacity:1.0000; stroke:none;">
<circle cx="52.0704" cy="9.1690" r="0.4000" /> 
</g>
<g style="fill:#FFFFFF; fill-opacity:1.0000; stroke:none;">
<circle cx="41.9104" cy="9.1690" r="0.4000" /> 
</g>
<g style="fill:#FFFFFF; fill-opacity:1.0000; stroke:none;">
<circle cx="8.2486" cy="22.1230" r="0.4000" /> 
</g>
<g style="fill:#FFFFFF; fill-opacity:1.0000; stroke:none;">
<circle cx="5.7486" cy="22.1230" r="0.4000" /> 
</g>
<g style="fill:#FFFFFF; fill-opacity:1.0000; stroke:none;">
<circle cx="59.6904" cy="58.6990" r="1.6000" /> 
</g> 
</svg>
